<svg id="Layer_1" data-name="Layer 1" xmlns="http://www.w3.org/2000/svg" xmlns:xlink="http://www.w3.org/1999/xlink" viewBox="0 0 170 170"><defs><style>.cls-1{fill:url(#linear-gradient);}.cls-2{fill:url(#linear-gradient-2);}.cls-3{mask:url(#mask);}.cls-4,.cls-5{fill:#20324f;}.cls-5{fill-rule:evenodd;}.cls-6{mask:url(#mask-2);}.cls-7,.cls-8{fill:#f5a425;}.cls-7{stroke:#20324f;stroke-width:0.03px;}</style><linearGradient id="linear-gradient" x1="284.47" y1="-83.94" x2="273.18" y2="-137.56" gradientTransform="matrix(-0.65, 0.46, -0.47, -0.71, 228.37, -149.83)" gradientUnits="userSpaceOnUse"><stop offset="0.33"/><stop offset="0.48" stop-color="#434343"/><stop offset="0.67" stop-color="#939393"/><stop offset="0.82" stop-color="#cdcdcd"/><stop offset="0.94" stop-color="#f1f1f1"/><stop offset="1" stop-color="#fff"/></linearGradient><linearGradient id="linear-gradient-2" x1="71.2" y1="91.71" x2="47.22" y2="77.2" gradientTransform="matrix(1, 0, 0, 1, 0, 0)" xlink:href="#linear-gradient"/><mask id="mask" x="64.26" y="26.97" width="68.66" height="61.1" maskUnits="userSpaceOnUse"><polygon class="cls-1" points="64.26 54.8 103.95 26.97 132.92 70.83 111.62 75.58 64.26 54.8"/></mask><mask id="mask-2" x="39.19" y="52.92" width="65.48" height="57.28" maskUnits="userSpaceOnUse"><polygon class="cls-2" points="104.67 88.66 61.23 110.2 39.19 62.49 60.97 61 104.67 88.66"/></mask></defs><g class="cls-3"><path class="cls-4" d="M128.34,68.77C106.62,80.21,80.59,48.91,80.66,48.83c-.18.11,5.75,51.37-9.69,23.48C69.78,70.11,76.83,86.56,82.18,88c2.06.54,4.12-.87,5.77-6.47,1.39-4.7,1.68-9.9,2.14-12.94,25,10.06,40.14-.79,38.25.21Z"/><path class="cls-5" d="M80.76,49.09c0,.1,0,.2,0,.28,0,.39.07.8.11,1.19.12,1.35.24,2.68.33,4,.3,3.86.57,7.68.64,11.4a68.1,68.1,0,0,1-.29,10.35c-.22,1.56-.72,4.7-2.24,5.25-1.17.43-2.44-.71-3.25-1.57a21.16,21.16,0,0,1-2.25-2.94c-1-1.39-1.83-2.87-2.67-4.37.37.89,1.12,2.4,1.23,2.68a69.46,69.46,0,0,0,3.5,6.17c1.41,2.17,3.93,5.71,6.32,6.33,3.21.84,4.9-3.75,5.7-6.4a52.17,52.17,0,0,0,1.41-7.08c.24-1.93.44-3.93.7-5.87v-.1l.09,0c9,3.57,18.54,5.38,27.87,3.82a36.65,36.65,0,0,0,7.6-2.15c.48-.21,1-.45,1.47-.66a23.13,23.13,0,0,1-10.8,2A29.88,29.88,0,0,1,108.64,70c-6.77-2.3-13.4-6.84-19.32-12.12C87.17,56,85,53.92,83,51.68c-.62-.65-1.21-1.32-1.77-2l-.47-.56Z"/><path class="cls-5" d="M80.85,49.35s0,0,0,0c0,.43.05.81.1,1.24.13,1.34.24,2.7.33,4,.33,3.87.56,7.67.66,11.37a66.74,66.74,0,0,1-.34,10.35c-.2,1.61-.72,4.72-2.25,5.3-1.17.45-2.48-.71-3.34-1.57a28.46,28.46,0,0,1-2.28-2.95c-.63-1-1.28-2-1.88-3,.2.45.42.89.63,1.33A68,68,0,0,0,76,81.54c1.38,2.17,3.91,5.67,6.27,6.28,3.15.84,4.83-3.75,5.61-6.34a46.41,46.41,0,0,0,1.39-7.06c.27-1.92.45-3.91.72-5.85l0-.21.14.07c8.94,3.55,18.49,5.35,27.77,3.8a34.17,34.17,0,0,0,5.73-1.4,22.37,22.37,0,0,1-7.34.78,30,30,0,0,1-7.68-1.51C101.86,67.8,95.21,63.27,89.26,58c-2.12-1.91-4.28-4-6.35-6.22-.58-.65-1.2-1.31-1.75-2a4.86,4.86,0,0,0-.31-.41Z"/><path class="cls-5" d="M81,49.59c0,.38.07.69.08,1,.14,1.39.22,2.74.35,4.05.29,3.87.53,7.65.62,11.35a67,67,0,0,1-.33,10.37c-.2,1.64-.7,4.78-2.31,5.36-1.21.46-2.53-.7-3.36-1.6a23.49,23.49,0,0,1-2.32-3c-.36-.54-.72-1.09-1.06-1.69a56.93,56.93,0,0,0,3.37,6c1.39,2.12,3.89,5.61,6.22,6.24,3.16.82,4.78-3.72,5.54-6.31a47.52,47.52,0,0,0,1.39-7c.29-1.93.45-3.9.74-5.88l0-.3.22.1c8.9,3.58,18.43,5.38,27.65,3.85a38.39,38.39,0,0,0,3.77-.81,23.77,23.77,0,0,1-5.32.34,29,29,0,0,1-7.67-1.54C101.83,67.89,95.19,63.35,89.24,58a86.13,86.13,0,0,1-6.34-6.22c-.61-.67-1.2-1.31-1.81-2a1.91,1.91,0,0,0-.14-.21Z"/><path class="cls-5" d="M81,49.83c0,.29,0,.55.06.83.13,1.36.24,2.7.34,4,.31,3.86.54,7.64.62,11.33a71.49,71.49,0,0,1-.3,10.39c-.25,1.67-.74,4.8-2.38,5.42-1.23.47-2.59-.71-3.44-1.61a24.56,24.56,0,0,1-2.32-3c-.09-.14-.19-.28-.27-.43C74.2,78.42,75.09,80,76,81.47c1.38,2.1,3.88,5.62,6.2,6.22,3.08.79,4.7-3.74,5.46-6.28a48.71,48.71,0,0,0,1.39-7c.27-1.93.46-3.93.71-5.9l.06-.37.29.12c8.89,3.56,18.38,5.35,27.6,3.85.73-.12,1.53-.26,2.28-.43a23,23,0,0,1-3.8.08,28,28,0,0,1-7.66-1.52C101.8,68,95.15,63.4,89.21,58.12a89.07,89.07,0,0,1-6.37-6.25c-.6-.65-1.19-1.31-1.77-2a.13.13,0,0,1,0-.05Z"/><path class="cls-5" d="M81.12,50.08a5.9,5.9,0,0,1,.06.59c.13,1.38.23,2.71.33,4,.32,3.84.54,7.61.64,11.29a65.08,65.08,0,0,1-.33,10.41c-.23,1.73-.75,4.87-2.41,5.5-1.26.45-2.65-.7-3.49-1.64A19.14,19.14,0,0,1,74,78c.66,1.18,1.35,2.34,2,3.47C77.45,83.52,80,87,82.25,87.6c3.06.81,4.66-3.72,5.39-6.2a49.55,49.55,0,0,0,1.4-7c.24-1.91.42-3.91.7-5.87l.05-.47.41.14c8.85,3.55,18.31,5.34,27.5,3.86.35-.07.72-.13,1.08-.18a21.86,21.86,0,0,1-2.56,0,28.37,28.37,0,0,1-7.69-1.53C101.74,68,95.11,63.47,89.14,58.18c-2.15-1.92-4.29-4-6.35-6.23-.56-.61-1.11-1.24-1.67-1.87Z"/><path class="cls-5" d="M81.24,50.32a2.16,2.16,0,0,1,0,.36c.14,1.37.25,2.7.36,4.06.33,3.83.54,7.6.65,11.27a74.31,74.31,0,0,1-.36,10.4c-.23,1.77-.77,4.94-2.48,5.54-1.3.51-2.66-.67-3.58-1.64a16.54,16.54,0,0,1-1.18-1.39c.48.82,1,1.65,1.51,2.45C77.5,83.44,80,87,82.26,87.54c3,.81,4.59-3.72,5.32-6.17a47.63,47.63,0,0,0,1.37-7c.26-1.93.44-3.92.71-5.88l.08-.55.49.16c8.82,3.54,18.28,5.34,27.43,3.86,0,0,0,0,0,0-.49,0-1,0-1.47,0a28.13,28.13,0,0,1-7.72-1.52c-6.78-2.3-13.45-6.85-19.42-12.16-2.14-1.94-4.3-4-6.35-6.25-.51-.54-1-1.12-1.51-1.68Z"/><path class="cls-5" d="M81.3,50.55a.75.75,0,0,1,0,.16c.11,1.35.22,2.72.33,4,.31,3.84.51,7.59.62,11.28a66.27,66.27,0,0,1-.35,10.41c-.22,1.79-.76,5-2.48,5.62-1.33.48-2.71-.7-3.65-1.66-.22-.26-.41-.48-.62-.69.33.55.66,1.11,1,1.63,1.34,2.06,3.81,5.55,6.08,6.15,2.95.77,4.5-3.72,5.21-6.14a47.63,47.63,0,0,0,1.39-7c.26-1.94.42-3.92.7-5.9l.11-.67.54.2c8.52,3.46,17.61,5.24,26.48,4-.18,0-.34,0-.52,0a28.06,28.06,0,0,1-7.69-1.52C101.69,68.17,95,63.63,89.06,58.34c-2.15-2-4.31-4-6.37-6.26-.47-.48-.92-1-1.39-1.53Z"/><path class="cls-5" d="M81.42,50.78c.1,1.34.23,2.64.34,4,.28,3.82.52,7.58.6,11.24A69.14,69.14,0,0,1,82,76.44c-.21,1.83-.78,5-2.52,5.67-1.36.52-2.77-.65-3.75-1.68a.76.76,0,0,0-.08-.11,10.35,10.35,0,0,0,.61,1c1.32,2,3.78,5.52,6,6.1,2.91.78,4.45-3.71,5.13-6a47.5,47.5,0,0,0,1.38-7c.26-1.93.44-3.91.71-5.88l.09-.78.63.26c8.23,3.32,17,5.08,25.58,4.11a29.05,29.05,0,0,1-7.35-1.52C101.66,68.27,95,63.68,89,58.38a86.78,86.78,0,0,1-6.37-6.24c-.4-.46-.83-.9-1.23-1.36Z"/><path class="cls-5" d="M81.49,51c.14,1.28.21,2.52.34,3.76.28,3.83.52,7.59.6,11.25a69.45,69.45,0,0,1-.35,10.46c-.22,1.84-.78,5-2.59,5.71-1.22.45-2.49-.43-3.46-1.36.12.13.21.31.29.41,1.32,2,3.78,5.52,6,6.1,2.89.75,4.37-3.71,5.08-6a46,46,0,0,0,1.36-7c.26-1.93.44-3.92.71-5.88l.13-.86.71.28c8,3.2,16.38,5,24.68,4.19a31,31,0,0,1-6.54-1.43C101.66,68.34,95,63.78,89,58.47c-2.18-1.93-4.34-4-6.42-6.25-.34-.4-.73-.81-1.09-1.22Z"/><path class="cls-5" d="M81.59,51.24c.13,1.17.22,2.37.29,3.55.3,3.81.54,7.56.62,11.22a69.67,69.67,0,0,1-.35,10.47c-.24,1.88-.82,5.1-2.62,5.78a3.22,3.22,0,0,1-3.13-1c1.3,2,3.77,5.45,5.91,6,2.84.74,4.34-3.74,5-6a46.83,46.83,0,0,0,1.39-6.92c.25-1.93.41-3.95.67-5.91l.19-1,.73.31c7.71,3.1,15.86,4.89,23.9,4.27a30,30,0,0,1-5.77-1.35c-6.81-2.28-13.49-6.88-19.48-12.18-2.18-1.91-4.28-4-6.4-6.24a13,13,0,0,0-1-1Z"/><path class="cls-5" d="M81.69,51.45c.08,1.12.2,2.23.27,3.35.31,3.81.53,7.56.62,11.21a72.54,72.54,0,0,1-.36,10.48c-.26,1.94-.83,5.16-2.69,5.84a3,3,0,0,1-2.81-.75c1.31,2,3.6,5.09,5.63,5.62,2.77.73,4.25-3.74,4.92-6a48.4,48.4,0,0,0,1.35-6.94c.25-1.92.44-3.91.7-5.89l.17-1,.84.33A54.49,54.49,0,0,0,113.43,72a33.27,33.27,0,0,1-5-1.26c-6.85-2.29-13.53-6.87-19.53-12.17-2.17-1.94-4.33-4-6.4-6.26-.26-.31-.54-.59-.81-.9Z"/><path class="cls-5" d="M81.79,51.67c.08,1,.18,2.11.25,3.12.27,3.83.51,7.56.6,11.22a67.5,67.5,0,0,1-.36,10.5c-.25,2-.84,5.18-2.72,5.89A2.75,2.75,0,0,1,77,81.87c1.35,2,3.47,4.75,5.38,5.27.23,0,.43,0,.64.08,2.27-.06,3.62-4,4.18-6a46.57,46.57,0,0,0,1.38-6.92c.24-1.94.41-3.92.69-5.89l.19-1.16.93.37A54,54,0,0,0,112.71,72a33.29,33.29,0,0,1-4.31-1.13C101.54,68.57,94.86,64,88.84,58.68c-2.16-1.94-4.31-4-6.38-6.27-.24-.25-.44-.49-.67-.74Z"/><path class="cls-5" d="M81.87,51.91c.1,1,.16,1.92.25,2.89.28,3.79.51,7.55.6,11.21a67.74,67.74,0,0,1-.37,10.52c-.23,2-.86,5.2-2.75,5.94a2.63,2.63,0,0,1-2.36-.35c1.34,2,3.33,4.46,5.13,4.94a4.62,4.62,0,0,0,.65.07c2.21,0,3.54-4,4.09-5.93a41.07,41.07,0,0,0,1.36-6.88c.28-2,.41-3.94.72-5.93l.15-1.23,1,.4A54.61,54.61,0,0,0,112,71.94a29.4,29.4,0,0,1-3.64-1c-6.85-2.28-13.54-6.84-19.56-12.17q-3.27-2.93-6.4-6.27c-.18-.19-.33-.39-.53-.57Z"/><path class="cls-5" d="M82,52.11c.1.91.15,1.82.2,2.72.32,3.79.53,7.51.62,11.19a70.42,70.42,0,0,1-.36,10.52c-.27,2-.87,5.28-2.81,6a2.6,2.6,0,0,1-2.16-.21c1.33,1.9,3.23,4.19,4.91,4.63a1.89,1.89,0,0,0,.65.09c2.16,0,3.48-4,4-5.85a43.09,43.09,0,0,0,1.36-6.91c.26-1.94.44-3.92.72-5.91l.17-1.33,1.1.43a54.79,54.79,0,0,0,20.91,4.36,29.5,29.5,0,0,1-3-.83c-6.83-2.29-13.56-6.88-19.57-12.19-2.17-1.94-4.32-4-6.39-6.29a2.32,2.32,0,0,1-.41-.42Z"/><path class="cls-5" d="M82.07,52.34c.07.84.11,1.67.18,2.48.28,3.81.51,7.52.59,11.19a69.33,69.33,0,0,1-.33,10.54c-.29,2-.88,5.32-2.87,6.06a2.67,2.67,0,0,1-2-.1c1.31,1.82,3.13,4,4.73,4.39A2.36,2.36,0,0,0,83,87c2.14,0,3.45-4,4-5.82a46.93,46.93,0,0,0,1.37-6.89c.25-1.92.43-3.93.7-5.91l.19-1.43,1.18.47a55.87,55.87,0,0,0,20.22,4.37c-.79-.21-1.55-.43-2.33-.67-6.83-2.31-13.56-6.89-19.58-12.24a85.38,85.38,0,0,1-6.41-6.25,2.18,2.18,0,0,1-.25-.28Z"/><path class="cls-5" d="M82.16,52.56c0,.76.11,1.51.17,2.26.29,3.82.51,7.55.62,11.18a74.7,74.7,0,0,1-.37,10.55c-.29,2.12-.92,5.39-2.91,6.13a2.48,2.48,0,0,1-1.78,0c1.27,1.75,3,3.76,4.52,4.15a1.9,1.9,0,0,0,.62.09c2.09-.06,3.4-4,3.91-5.77a48.25,48.25,0,0,0,1.35-6.85c.24-2,.4-3.94.67-5.94l.25-1.53,1.23.51A56.49,56.49,0,0,0,110,71.7c-.55-.18-1.15-.36-1.72-.53C101.43,68.86,94.72,64.28,88.67,59c-2.16-2-4.32-4-6.4-6.28l-.11-.11Z"/><path class="cls-5" d="M82.25,52.77c.06.68.12,1.39.17,2.06.28,3.81.49,7.54.58,11.18a65.73,65.73,0,0,1-.37,10.55c-.29,2.15-.92,5.45-2.95,6.21a2.71,2.71,0,0,1-1.62,0c1.28,1.72,2.89,3.58,4.36,4a1.73,1.73,0,0,0,.58.07c2.07-.06,3.36-4,3.87-5.7a53.68,53.68,0,0,0,1.35-6.86c.24-2,.41-4,.69-5.93l.21-1.65,1.33.55a57.05,57.05,0,0,0,18.91,4.34,10.73,10.73,0,0,0-1.09-.33C101.41,68.94,94.69,64.37,88.64,59a84.79,84.79,0,0,1-6.39-6.23Z"/><path class="cls-5" d="M82.36,53c0,.63.07,1.25.13,1.85.28,3.8.5,7.55.57,11.18a69.65,69.65,0,0,1-.35,10.57c-.31,2.16-.94,5.5-3,6.27a2.84,2.84,0,0,1-1.47.07c1.24,1.63,2.81,3.39,4.22,3.77a1.63,1.63,0,0,0,.55.09c2-.06,3.33-4,3.78-5.69a45.49,45.49,0,0,0,1.35-6.86c.28-1.93.44-3.92.71-5.9l.22-1.73,1.41.57a57.57,57.57,0,0,0,18.27,4.33c-.16-.07-.32-.12-.52-.19C101.37,69,94.63,64.44,88.6,59.08A85.06,85.06,0,0,1,82.36,53Z"/><path class="cls-5" d="M82.44,53.19c0,.55.07,1.11.12,1.65.28,3.79.49,7.54.57,11.16a66.06,66.06,0,0,1-.37,10.59c-.29,2.22-.94,5.53-3.05,6.3A2.56,2.56,0,0,1,78.4,83c1.2,1.61,2.73,3.24,4.08,3.58a1.05,1.05,0,0,0,.53.07c2,0,3.25-3.93,3.74-5.62a48.53,48.53,0,0,0,1.32-6.85c.25-1.91.45-3.92.71-5.88L89,66.48l1.47.59a57.09,57.09,0,0,0,17.64,4.3C101.28,69,94.6,64.48,88.57,59.15c-2.09-1.86-4.15-3.83-6.13-6Z"/><path class="cls-5" d="M82.53,53.41c0,.49,0,1,.11,1.44.26,3.79.5,7.52.55,11.17a65.9,65.9,0,0,1-.37,10.57c-.3,2.26-.95,5.59-3.07,6.37a2.26,2.26,0,0,1-1.18.15c1.19,1.55,2.61,3.1,3.91,3.45a3.14,3.14,0,0,0,.51,0c2,0,3.22-4,3.68-5.57A44.36,44.36,0,0,0,88,74.21c.27-1.94.43-3.92.71-5.9L89,66.37l1.57.65a57.83,57.83,0,0,0,17,4.22c-6.65-2.35-13.17-6.82-19-12-2-1.79-4-3.73-6-5.81Z"/></g><g class="cls-6"><path class="cls-4" d="M43.42,65.21C66.6,57.17,87.63,92,87.55,92.1c.19-.09,2-51.65,13.11-21.75.84,2.35-3.64-15-8.74-17.17-2-.84-4.19.24-6.66,5.53-2.09,4.44-3.16,9.53-4.06,12.47-23.22-13.71-39.81-5.26-37.78-6Z"/><path class="cls-5" d="M87.49,91.83a2.19,2.19,0,0,1,0-.28c0-.39,0-.8.07-1.19.09-1.35.16-2.69.28-4,.28-3.88.6-7.69,1.08-11.37A67.27,67.27,0,0,1,90.8,64.75c.45-1.52,1.42-4.54,3-4.86,1.21-.24,2.31,1.08,3,2a20.42,20.42,0,0,1,1.79,3.25c.74,1.52,1.37,3.11,2,4.72-.22-.94-.74-2.53-.82-2.84a68.63,68.63,0,0,0-2.52-6.62c-1.07-2.35-3-6.23-5.29-7.21-3.06-1.31-5.41,3-6.6,5.48a52.41,52.41,0,0,0-2.47,6.78c-.52,1.87-1,3.82-1.57,5.7l0,.09-.1,0c-8.32-4.88-17.5-8.11-27-8a36,36,0,0,0-7.84,1c-.51.13-1,.29-1.56.43a23,23,0,0,1,11-.39,29.37,29.37,0,0,1,7.31,2.64c6.34,3.29,12.21,8.79,17.27,14.89,1.84,2.24,3.63,4.59,5.33,7.11.51.74,1,1.49,1.44,2.26.12.2.25.4.38.63Z"/><path class="cls-5" d="M87.44,91.56s0,0,0,0c0-.42.07-.8.09-1.24.07-1.33.17-2.7.28-4,.26-3.87.6-7.66,1.06-11.34a66.16,66.16,0,0,1,1.89-10.18c.44-1.56,1.42-4.56,3-4.9,1.22-.26,2.33,1.07,3,2.05a25.68,25.68,0,0,1,1.81,3.27c.48,1.08,1,2.16,1.41,3.28-.12-.47-.27-.94-.42-1.4a67.49,67.49,0,0,0-2.52-6.56c-1-2.35-3-6.19-5.25-7.15-3-1.3-5.34,3-6.5,5.43a48,48,0,0,0-2.44,6.76c-.55,1.86-1,3.81-1.59,5.68l-.06.2-.14-.09c-8.3-4.86-17.46-8.07-26.87-7.94a34.92,34.92,0,0,0-5.88.53,22.59,22.59,0,0,1,7.39.33,29.81,29.81,0,0,1,7.36,2.66c6.31,3.28,12.2,8.76,17.28,14.9,1.8,2.2,3.63,4.58,5.33,7.1.48.74,1,1.48,1.44,2.23.08.17.18.3.25.45Z"/><path class="cls-5" d="M87.37,91.3c0-.36,0-.69.09-1,.06-1.4.19-2.74.26-4.06.29-3.87.62-7.64,1.08-11.31a68.2,68.2,0,0,1,1.89-10.2c.45-1.59,1.42-4.63,3.09-5,1.26-.27,2.4,1.08,3.09,2.09a24.15,24.15,0,0,1,1.84,3.28c.27.58.56,1.18.79,1.82a56.43,56.43,0,0,0-2.42-6.44c-1-2.32-3-6.14-5.2-7.11-3-1.29-5.3,3-6.44,5.41A47.67,47.67,0,0,0,83,65.54c-.57,1.86-1,3.78-1.62,5.69l-.08.3-.2-.14c-8.27-4.87-17.41-8.09-26.76-8a38.44,38.44,0,0,0-3.85.24,23,23,0,0,1,5.31.46,28.43,28.43,0,0,1,7.34,2.68c6.33,3.26,12.22,8.75,17.3,14.9a83.09,83.09,0,0,1,5.32,7.1c.51.76,1,1.49,1.49,2.27l.11.22Z"/><path class="cls-5" d="M87.32,91.06a7.91,7.91,0,0,0,.06-.83c.08-1.36.19-2.71.28-4,.27-3.85.61-7.62,1.09-11.28a71.4,71.4,0,0,1,1.86-10.23c.5-1.62,1.46-4.63,3.16-5,1.29-.28,2.46,1.08,3.17,2.11a25.67,25.67,0,0,1,1.84,3.3c.07.16.15.31.2.46q-.89-2.6-2-5c-1-2.29-3-6.15-5.19-7.09-2.93-1.24-5.22,3-6.34,5.39a49,49,0,0,0-2.43,6.72c-.55,1.86-1,3.81-1.59,5.72l-.12.36-.26-.17c-8.26-4.85-17.38-8-26.71-8-.75,0-1.55,0-2.31.09a23,23,0,0,1,3.77.49,28.14,28.14,0,0,1,7.33,2.66C69.53,70,75.41,75.51,80.5,81.64q2.79,3.35,5.35,7.12c.5.74,1,1.48,1.46,2.24a.13.13,0,0,1,0,.06Z"/><path class="cls-5" d="M87.28,90.8c0-.2,0-.4,0-.6.07-1.37.18-2.71.28-4Q88,80.39,88.66,74.9a64.72,64.72,0,0,1,1.89-10.25C91,63,92,60,93.75,59.59c1.32-.26,2.53,1.09,3.21,2.14a21.18,21.18,0,0,1,1.52,2.57C98,63,97.48,61.78,97,60.55c-1-2.26-3-6.08-5.15-7-2.9-1.27-5.18,3-6.26,5.31a47.57,47.57,0,0,0-2.44,6.73c-.53,1.85-1,3.81-1.57,5.7l-.13.46-.38-.2c-8.22-4.84-17.3-8-26.61-8h-1.1a22.63,22.63,0,0,1,2.54.39,28.48,28.48,0,0,1,7.36,2.66c6.38,3.29,12.24,8.81,17.35,14.93a88.64,88.64,0,0,1,5.34,7.12c.46.68.92,1.38,1.37,2.1Z"/><path class="cls-5" d="M87.2,90.54a2.11,2.11,0,0,1,0-.35c.07-1.38.16-2.71.26-4.07.25-3.84.61-7.6,1-11.25a73.88,73.88,0,0,1,1.92-10.22c.49-1.72,1.51-4.76,3.28-5.11,1.36-.31,2.52,1.07,3.29,2.16a14.73,14.73,0,0,1,1,1.56c-.35-.89-.73-1.79-1.12-2.65-1-2.25-3-6.1-5.1-7-2.86-1.25-5.1,3-6.18,5.29a47.37,47.37,0,0,0-2.42,6.72c-.54,1.88-1,3.81-1.58,5.71l-.17.53L81,71.61c-8.19-4.83-17.26-8-26.54-8h0c.48.07,1,.15,1.44.25a28,28,0,0,1,7.41,2.66c6.37,3.31,12.26,8.8,17.37,15,1.82,2.23,3.64,4.6,5.34,7.13.42.61.84,1.26,1.24,1.89Z"/><path class="cls-5" d="M87.17,90.31a.88.88,0,0,1,0-.17c.1-1.35.21-2.73.29-4,.28-3.85.63-7.59,1.08-11.26a66.23,66.23,0,0,1,1.92-10.22c.49-1.74,1.49-4.81,3.28-5.19,1.4-.28,2.58,1.1,3.37,2.19.19.29.33.53.52.78-.26-.6-.5-1.21-.77-1.77-1-2.24-2.94-6.06-5.1-7-2.79-1.21-5,3-6.06,5.28a46.73,46.73,0,0,0-2.42,6.67c-.56,1.88-1,3.81-1.59,5.72l-.21.66-.5-.29c-7.9-4.7-16.62-7.82-25.57-8,.18.05.34.06.51.11a28.83,28.83,0,0,1,7.38,2.65c6.39,3.32,12.3,8.82,17.4,14.94,1.83,2.26,3.65,4.64,5.35,7.15.4.55.75,1.14,1.14,1.73Z"/><path class="cls-5" d="M87.08,90.06c.11-1.34.18-2.65.28-4,.29-3.82.62-7.58,1.09-11.21a70,70,0,0,1,1.92-10.28c.48-1.77,1.53-4.85,3.34-5.22,1.42-.31,2.64,1.06,3.46,2.23a.34.34,0,0,0,.06.12,10.49,10.49,0,0,0-.46-1c-1-2.22-2.91-6-5-6.93-2.76-1.21-5,3-6,5.2a47.88,47.88,0,0,0-2.41,6.7c-.55,1.87-1,3.8-1.59,5.71l-.21.75-.58-.34c-7.63-4.53-16-7.58-24.66-7.92a29.34,29.34,0,0,1,7,2.61c6.39,3.27,12.28,8.81,17.41,15a84.46,84.46,0,0,1,5.36,7.13c.33.51.69,1,1,1.53Z"/><path class="cls-5" d="M87.05,89.83c.06-1.29.17-2.52.23-3.77.3-3.83.63-7.58,1.1-11.21A69.76,69.76,0,0,1,90.3,64.57c.5-1.8,1.53-4.87,3.41-5.26,1.28-.27,2.4.79,3.22,1.86-.09-.15-.15-.33-.22-.46-1-2.19-2.91-6-5-6.92-2.75-1.17-4.89,3-5.93,5.19a47.14,47.14,0,0,0-2.4,6.68c-.54,1.87-1,3.81-1.58,5.71l-.26.83-.66-.39C73.51,67.46,65.43,64.44,57.12,64a31.75,31.75,0,0,1,6.25,2.41c6.35,3.29,12.27,8.81,17.38,15a88.34,88.34,0,0,1,5.4,7.14c.29.44.61.91.9,1.37Z"/><path class="cls-5" d="M87,89.58c.05-1.18.14-2.37.25-3.56.27-3.81.6-7.55,1.08-11.18a68,68,0,0,1,1.91-10.3c.52-1.82,1.59-4.91,3.46-5.32a3.23,3.23,0,0,1,2.94,1.48c-1-2.19-2.91-5.94-4.94-6.86-2.7-1.15-4.85,3-5.83,5.19a47.82,47.82,0,0,0-2.43,6.62c-.53,1.89-1,3.85-1.55,5.75l-.33.93-.68-.41c-7.15-4.23-15-7.22-23-7.82a30.59,30.59,0,0,1,5.51,2.2c6.37,3.28,12.29,8.83,17.41,15,1.88,2.22,3.65,4.6,5.4,7.13.24.39.49.79.78,1.18Z"/><path class="cls-5" d="M86.91,89.35c.1-1.12.15-2.23.25-3.35q.39-5.73,1.08-11.17a70,70,0,0,1,1.92-10.3c.55-1.89,1.6-5,3.55-5.38a3,3,0,0,1,2.66,1.17c-1-2.2-2.8-5.58-4.72-6.41C89,52.78,86.89,57,85.9,59.06a48,48,0,0,0-2.4,6.65c-.53,1.86-1,3.8-1.57,5.72l-.31,1L80.83,72a54.59,54.59,0,0,0-22.19-7.76,33.11,33.11,0,0,1,4.76,2c6.41,3.28,12.34,8.82,17.47,15,1.86,2.25,3.68,4.65,5.39,7.16.22.34.44.66.65,1Z"/><path class="cls-5" d="M86.86,89.12c.07-1.05.14-2.11.22-3.12.31-3.83.64-7.55,1.09-11.19A68.46,68.46,0,0,1,90.1,64.49c.54-1.9,1.62-5,3.59-5.42a2.75,2.75,0,0,1,2.46.91c-1-2.16-2.71-5.21-4.52-6L91,53.79c-2.26-.28-4.18,3.44-5,5.3a46.93,46.93,0,0,0-2.4,6.63c-.53,1.88-1,3.82-1.57,5.72l-.35,1.12-.86-.51a54.09,54.09,0,0,0-21.45-7.66,31.62,31.62,0,0,1,4.1,1.76C69.87,69.44,75.79,75,81,81.13c1.84,2.24,3.65,4.64,5.35,7.16.21.28.37.55.56.83Z"/><path class="cls-5" d="M86.81,88.88c0-1,.13-1.93.19-2.9.29-3.79.63-7.55,1.1-11.17A68.39,68.39,0,0,1,90,64.46c.54-1.92,1.63-5,3.61-5.46a2.66,2.66,0,0,1,2.29.7c-1-2.15-2.63-4.91-4.34-5.65a3.15,3.15,0,0,0-.62-.17c-2.18-.3-4.12,3.45-4.94,5.26a39.42,39.42,0,0,0-2.38,6.59c-.58,1.9-1,3.83-1.6,5.75l-.34,1.19-1-.55A54.86,54.86,0,0,0,60,64.54a31.34,31.34,0,0,1,3.45,1.55c6.42,3.28,12.36,8.81,17.5,15,1.87,2.25,3.67,4.65,5.38,7.17.15.2.28.43.44.64Z"/><path class="cls-5" d="M86.75,88.66c0-.91.12-1.82.2-2.72q.39-5.68,1.08-11.16A70.5,70.5,0,0,1,90,64.44c.57-2,1.65-5.08,3.67-5.51a2.58,2.58,0,0,1,2.11.53c-1-2.08-2.56-4.63-4.15-5.31A2.13,2.13,0,0,0,91,54c-2.15-.29-4,3.45-4.87,5.18a43.81,43.81,0,0,0-2.39,6.62c-.54,1.88-1,3.81-1.59,5.74l-.37,1.29-1-.59a55,55,0,0,0-20-7.46c.94.36,1.86.79,2.82,1.27C69.93,69.3,75.89,74.85,81,81c1.85,2.25,3.66,4.65,5.37,7.18a2.62,2.62,0,0,1,.34.48Z"/><path class="cls-5" d="M86.68,88.42c.06-.84.14-1.67.19-2.48.3-3.81.63-7.52,1.11-11.16a67.51,67.51,0,0,1,1.91-10.36c.59-2,1.68-5.13,3.75-5.56a2.6,2.6,0,0,1,1.92.39c-1-2-2.5-4.39-4-5A1.86,1.86,0,0,0,91,54c-2.12-.28-4,3.45-4.8,5.15a49.38,49.38,0,0,0-2.39,6.61c-.54,1.86-1,3.82-1.57,5.73l-.42,1.39-1.09-.63A56,56,0,0,0,61.36,64.9c.75.33,1.47.66,2.2,1C70,69.23,75.94,74.77,81.08,81a83.53,83.53,0,0,1,5.4,7.15,2.36,2.36,0,0,1,.2.31Z"/><path class="cls-5" d="M86.63,88.18c.06-.75.11-1.5.17-2.26q.42-5.72,1.06-11.14a76.58,76.58,0,0,1,2-10.38c.59-2.05,1.72-5.18,3.8-5.62a2.54,2.54,0,0,1,1.76.28c-1-1.93-2.42-4.17-3.85-4.78a1.6,1.6,0,0,0-.6-.18c-2.07-.26-4,3.44-4.73,5.11a50.29,50.29,0,0,0-2.37,6.57c-.53,1.9-1,3.84-1.55,5.78L81.8,73l-1.14-.69A56.36,56.36,0,0,0,62,65.08l1.63.78C70,69.17,76,74.71,81.15,80.89c1.84,2.25,3.67,4.63,5.38,7.17l.1.12Z"/><path class="cls-5" d="M86.57,88c0-.69.09-1.4.15-2.07.29-3.81.64-7.53,1.09-11.14a67.44,67.44,0,0,1,2-10.37c.61-2.09,1.73-5.25,3.85-5.7a2.66,2.66,0,0,1,1.6.21c-1-1.88-2.31-4-3.71-4.57a1.76,1.76,0,0,0-.56-.16c-2-.25-3.92,3.44-4.69,5a56,56,0,0,0-2.36,6.59c-.54,1.9-1,3.85-1.58,5.75l-.45,1.6-1.24-.74a57,57,0,0,0-18-7.15c.33.18.68.35,1,.51C70.06,69.1,76,74.62,81.18,80.84A83.11,83.11,0,0,1,86.57,88Z"/><path class="cls-5" d="M86.5,87.74c0-.62.11-1.26.15-1.85.29-3.8.63-7.53,1.1-11.13a73,73,0,0,1,1.94-10.4c.64-2.09,1.76-5.3,3.92-5.75a2.86,2.86,0,0,1,1.46.15c-1-1.8-2.27-3.77-3.61-4.36a1.74,1.74,0,0,0-.53-.17c-2-.25-3.88,3.44-4.59,5.05A45.22,45.22,0,0,0,84,65.87c-.57,1.86-1,3.81-1.59,5.72l-.47,1.67-1.32-.77a57.77,57.77,0,0,0-17.4-7,4.3,4.3,0,0,0,.48.26c6.44,3.31,12.4,8.85,17.57,15a86.37,86.37,0,0,1,5.26,7Z"/><path class="cls-5" d="M86.45,87.52c0-.55.09-1.1.12-1.65.3-3.79.65-7.53,1.12-11.11a65.81,65.81,0,0,1,2-10.42c.62-2.14,1.75-5.33,4-5.78a2.75,2.75,0,0,1,1.31.06c-1-1.76-2.21-3.61-3.49-4.15a1,1,0,0,0-.51-.14c-2-.27-3.8,3.4-4.54,5A50,50,0,0,0,84,65.89c-.52,1.86-1,3.81-1.58,5.71l-.51,1.79-1.37-.8a57.21,57.21,0,0,0-16.79-6.91c6.42,3.34,12.34,8.85,17.49,15,1.79,2.15,3.54,4.41,5.18,6.81Z"/><path class="cls-5" d="M86.38,87.29c.05-.5.11-1,.12-1.44.3-3.78.63-7.5,1.13-11.12a65.08,65.08,0,0,1,2-10.4c.64-2.19,1.77-5.38,4-5.84a2.37,2.37,0,0,1,1.19,0c-.94-1.71-2.12-3.45-3.34-4a3.55,3.55,0,0,0-.51-.14c-1.92-.25-3.78,3.44-4.47,5A46.87,46.87,0,0,0,84.1,65.9c-.54,1.88-1,3.81-1.59,5.73L82,73.51l-1.46-.88a57.86,57.86,0,0,0-16.18-6.74c6.23,3.34,12,8.74,17,14.76,1.72,2.07,3.42,4.3,5,6.64Z"/></g><path class="cls-7" d="M72,74.73c0,6.61,0,12.22-.35,15.21-.37,2-.73,3.3-2.18,3.63a7.56,7.56,0,0,1-2.87.33c-1.09,0-1.44.34-1.44.67,0,.66.71,1,1.8,1,1.45,0,3.6-.33,5.4-.33H86.09c4,.33,8.65.33,14.78.33,2.89,0,3.61,0,4.32-1.66A60,60,0,0,0,106.28,86a1.87,1.87,0,0,0-.36-1.33l-1.09-.33a1.17,1.17,0,0,1-.35,1c-.37,3-1.44,4.63-3.24,5.29-2.17,1-5.42,1-7.58,1-8.3,0-10.82-1-10.82-5.94V73.74a10.82,10.82,0,0,0-2.53-1.65l-1.43-1,2.87,1.33c10.47,5.28,16.6,9.25,29.58,7.27,10.1-1.65,19.83-7.6,24.88-17.52-10.81,18.51-28.13,14.54-43.63,8.6a16.47,16.47,0,0,0,3.59,1.32c14.08,4,23.82,1,28.85-1.32a30.16,30.16,0,0,1-9,1.32c-8.29-.34-18.38-4.31-27-8.6-6.85-3.3-8.29-5.29-15.86-6.94C58,53.24,41.37,59.19,33.79,73.74,45,55.23,61.93,58.86,77.8,64.82c-1.44-.34-2.54-.67-4-1-13.71-4-23.78-1-28.47,1.33a17.1,17.1,0,0,1,9-1.33c4.33,0,10.1,1.33,17.67,4.3ZM82.84,59.86V46.64c0-.34,0-.67.35-.67,1.82,0,11.19.33,12.63.33,4,.34,4.69,1.32,5.42,2.65a8,8,0,0,1,.34,2.64c0,.66,0,1,.73,1s.73-1,.73-1.32c.36-.66.36-4,.72-4.62a29.16,29.16,0,0,1,.35-4.63c0-.33,0-.67-.35-.67s-.72.34-1.45.34a30,30,0,0,1-3.24.33c-1.44.33-19.12,0-21.63,0H65.89c-1.08,0-1.8,0-1.8.65,0,.34.36.66,1.44.66s2.53,0,2.9.34c2.51.66,3.24,1.32,3.59,3.63v7.6l1.45.34c3.24,1,6.48,3,9.37,4.63Z"/><rect class="cls-8" x="33.09" y="128.31" width="103.82" height="0.35"/><rect class="cls-8" x="33.09" y="104.74" width="103.82" height="0.34"/><path class="cls-8" d="M7,110.18l-2,9.07H6a7.18,7.18,0,0,0,1.51-.14,3.26,3.26,0,0,0,1.33-.77,6.47,6.47,0,0,0,1.39-2h.56l-.82,3.4H1.25l.13-.53H2.57l1.92-9.07H3.08l.1-.53h5.2l-.11.53Z"/><path class="cls-8" d="M17.84,117.76l.4.26A4.48,4.48,0,0,1,14.37,120a2.76,2.76,0,0,1-2-.68,2.25,2.25,0,0,1-.68-1.62,3.83,3.83,0,0,1,1.26-2.72,4.5,4.5,0,0,1,3.32-1.27,2.46,2.46,0,0,1,1.54.41,1.3,1.3,0,0,1,.53,1.11q0,2.16-4.23,2a6.9,6.9,0,0,0-.26,1.41c0,.55.33.82,1,.82A3.91,3.91,0,0,0,17.84,117.76Zm-3.65-1a2.59,2.59,0,0,0,2.07-.56,1.89,1.89,0,0,0,.55-1.26.9.9,0,0,0-.22-.61.83.83,0,0,0-.66-.25,1.17,1.17,0,0,0-1,.64A7.21,7.21,0,0,0,14.19,116.77Z"/><path class="cls-8" d="M24.55,113.83h2.08l-1.06,4.06a4.08,4.08,0,0,0-.14.78c0,.25.08.37.25.37.34,0,.7-.48,1.1-1.44l.41.29c-.61,1.38-1.37,2.07-2.3,2.07a1.36,1.36,0,0,1-1.41-1,2.56,2.56,0,0,1-2,1,2.2,2.2,0,0,1-1.59-.64,2.14,2.14,0,0,1-.64-1.61,4,4,0,0,1,1.16-2.8,3.49,3.49,0,0,1,2.6-1.24,1.32,1.32,0,0,1,1.33.9h0Zm-1.38.37a.79.79,0,0,0-.7.37,9.75,9.75,0,0,0-.75,2.18,13.68,13.68,0,0,0-.48,2.2q0,.54.6.54a1.53,1.53,0,0,0,1-.5,4.18,4.18,0,0,0,.89-1.91,10.21,10.21,0,0,0,.35-1.94.94.94,0,0,0-.25-.64A.83.83,0,0,0,23.17,114.2Z"/><path class="cls-8" d="M28.22,119.78l1.44-5.54H28.52l.12-.46H29.9c.33,0,.69,0,1.09,0l.57-.06h.33l-.42,1.5,0,0c.7-1,1.42-1.53,2.17-1.53a1.34,1.34,0,0,1,.82.26.92.92,0,0,1,.34.75.84.84,0,0,1-.29.65.92.92,0,0,1-.6.24,1,1,0,0,1-.81-.43c-.21-.29-.37-.43-.49-.43s-.53.27-.88.8a7,7,0,0,0-.9,2.17l-.57,2.1Z"/><path class="cls-8" d="M36,119.78l1.41-5.51H36.14l.12-.46h.94c.39,0,.84,0,1.36-.07l.73-.07h.34l-.34,1.22,0,0a3.51,3.51,0,0,1,2.53-1.25,1.77,1.77,0,0,1,1.06.3,1,1,0,0,1,.41.88,3.16,3.16,0,0,1-.11.66l-.63,2.56a4,4,0,0,0-.13.71c0,.14.06.22.16.22.43,0,.88-.5,1.33-1.49l.48.11a4.64,4.64,0,0,1-1.23,1.76,2.27,2.27,0,0,1-1.46.58,1.32,1.32,0,0,1-.95-.34,1,1,0,0,1-.38-.77,4.08,4.08,0,0,1,.16-1l.72-2.86a1.22,1.22,0,0,0,.1-.48.24.24,0,0,0-.27-.26,1.08,1.08,0,0,0-.38.09,2.68,2.68,0,0,0-.5.26,5,5,0,0,0-.67.51c-.27.23-.41.37-.42.44l-1.09,4.19Z"/><path class="cls-8" d="M48.92,113.7l-1.25,4.83a1.26,1.26,0,0,0,0,.19.84.84,0,0,0,0,.23.19.19,0,0,0,.21.21c.43,0,.84-.5,1.24-1.5l.42.3A2.62,2.62,0,0,1,47,120c-1,0-1.47-.34-1.47-1a3.37,3.37,0,0,1,.12-.78l1-3.9h-1l.11-.46h1.08c.33,0,.7,0,1.09,0l.52-.06Zm-1.87-2.52a1,1,0,0,1,.33-.77,1.16,1.16,0,0,1,.8-.31,1.12,1.12,0,0,1,.77.31,1,1,0,0,1,.33.77,1.11,1.11,0,0,1-1.1,1.1,1.13,1.13,0,0,1-.8-.32A1.07,1.07,0,0,1,47.05,111.18Z"/><path class="cls-8" d="M50.45,119.78l1.4-5.51H50.63l.12-.46h.93c.4,0,.85,0,1.37-.07l.73-.07h.33l-.33,1.22,0,0a3.49,3.49,0,0,1,2.52-1.25,1.77,1.77,0,0,1,1.06.3,1,1,0,0,1,.41.88,3.16,3.16,0,0,1-.11.66l-.63,2.56a3.74,3.74,0,0,0-.12.71c0,.14,0,.22.15.22.43,0,.87-.5,1.33-1.49l.47.11a4.52,4.52,0,0,1-1.22,1.76,2.25,2.25,0,0,1-1.46.58,1.36,1.36,0,0,1-1-.34,1,1,0,0,1-.36-.77,4.52,4.52,0,0,1,.15-1l.72-2.86a1.22,1.22,0,0,0,.1-.48.24.24,0,0,0-.27-.26,1.13,1.13,0,0,0-.38.09,2.68,2.68,0,0,0-.5.26,5,5,0,0,0-.67.51,1.73,1.73,0,0,0-.42.44l-1.1,4.19Z"/><path class="cls-8" d="M60.88,117.27a1.7,1.7,0,0,1-.52-1.2,2,2,0,0,1,1-1.71,3.82,3.82,0,0,1,2.2-.69,3.31,3.31,0,0,1,2.47,1c.23-.84.57-1.26,1-1.26a.61.61,0,0,1,.47.19.71.71,0,0,1,0,1,.68.68,0,0,1-.41.16l-.49-.16c-.1,0-.17.07-.23.19a.67.67,0,0,0-.08.29,1.91,1.91,0,0,0,.07.28,1.94,1.94,0,0,1,.07.41,2,2,0,0,1-1,1.67,3.81,3.81,0,0,1-2.27.68,3.55,3.55,0,0,1-2-.58c-.48.44-.72.81-.72,1.1s.14.39.43.46a6.34,6.34,0,0,0,1.26.1c1.28,0,2.14,0,2.58.08a2.12,2.12,0,0,1,1.14.5,1.3,1.3,0,0,1,.46,1,2.47,2.47,0,0,1-1.24,2.08,6.06,6.06,0,0,1-3.43.84,5.09,5.09,0,0,1-2.26-.42,1.26,1.26,0,0,1-.82-1.16c0-.6.56-1.12,1.69-1.55a1.54,1.54,0,0,1-.79-1.34A2.47,2.47,0,0,1,60.88,117.27Zm-.2,3.53a1.26,1.26,0,0,0-.59,1,1.33,1.33,0,0,0,.55,1,2.6,2.6,0,0,0,1.65.44,4.25,4.25,0,0,0,2-.43,1.27,1.27,0,0,0,.85-1.11.55.55,0,0,0-.34-.51,6.46,6.46,0,0,0-2.06-.18A6.47,6.47,0,0,1,60.68,120.8Zm3.06-6.71a1,1,0,0,0-.71.28,2.39,2.39,0,0,0-.54,1.24,7.62,7.62,0,0,0-.21,1.34c0,.51.24.76.72.76s1-.39,1.19-1.18a7,7,0,0,0,.34-1.71.76.76,0,0,0-.2-.51A.74.74,0,0,0,63.74,114.09Z"/><path class="cls-8" d="M83,109.65l-.66,3.68h-.53a4.24,4.24,0,0,0-.54-2.41,1.85,1.85,0,0,0-1.57-.65H77.59l-.86,4.78h.44a2.19,2.19,0,0,0,1.53-.45,3.72,3.72,0,0,0,.82-1.62h.54l-.9,5h-.54c0-.29,0-.53,0-.71a1.85,1.85,0,0,0-.35-1.19,1.66,1.66,0,0,0-1.33-.44h-.38L75.68,121h1.39l-.11.63H71.89L72,121h1.17l2-10.74H73.69l.11-.62Z"/><path class="cls-8" d="M84.08,121.85a2.91,2.91,0,0,1-2.11-.79,2.77,2.77,0,0,1-.82-2.13,4.23,4.23,0,0,1,1.41-3.18,4.43,4.43,0,0,1,3.11-1.34,3.11,3.11,0,0,1,2.12.74,2.66,2.66,0,0,1,.84,2.12,4.44,4.44,0,0,1-1.36,3.2A4.34,4.34,0,0,1,84.08,121.85Zm1.43-6.95a1.26,1.26,0,0,0-1,.49,6.81,6.81,0,0,0-.85,2.49,20.59,20.59,0,0,0-.43,2.38,1.16,1.16,0,0,0,.26.77.87.87,0,0,0,.71.32,1.38,1.38,0,0,0,1-.44,6.56,6.56,0,0,0,.88-2.51,20.28,20.28,0,0,0,.46-2.47A.91.91,0,0,0,85.51,114.9Z"/><path class="cls-8" d="M90,121.64l1.44-6.55H90.27l.12-.56h1.26c.33,0,.69,0,1.09-.06l.57-.06h.33l-.41,1.78,0,0c.69-1.21,1.42-1.81,2.16-1.81a1.16,1.16,0,0,1,.82.31,1.12,1.12,0,0,1,.34.88,1.08,1.08,0,0,1-.29.77.8.8,0,0,1-.6.29.93.93,0,0,1-.8-.51c-.21-.34-.38-.51-.49-.51s-.54.31-.89.94a9.72,9.72,0,0,0-.9,2.57l-.56,2.49Z"/><path class="cls-8" d="M112,109.65l-.61,2.85h-.53a2.89,2.89,0,0,0-.43-1.78,2,2,0,0,0-1.65-.54h-2.15l-.85,3.94h.32a3.37,3.37,0,0,0,1.61-.32,2.15,2.15,0,0,0,.89-1.4h.54l-.89,4.23h-.53a3.39,3.39,0,0,0,0-.54,1.89,1.89,0,0,0-.19-.82,1,1,0,0,0-.5-.52,3,3,0,0,0-.91-.1h-.51l-1,4.6h1.41a8,8,0,0,0,1.55-.14,3.68,3.68,0,0,0,1.46-.78,6.13,6.13,0,0,0,1.48-2h.54l-.84,3.4h-9.39l.11-.53h1.21l2-9.07h-1.42l.11-.53Z"/><path class="cls-8" d="M112.44,116l-.4-.2c.67-1.41,1.57-2.11,2.7-2.11a1.47,1.47,0,0,1,1,.3.91.91,0,0,1,.35.68,6.81,6.81,0,0,1-.23,1.39l-.48,1.87a2.07,2.07,0,0,0-.09.37,2.69,2.69,0,0,0-.06.44.48.48,0,0,0,.15.34.59.59,0,0,0,.46.16,2.87,2.87,0,0,0,2.06-1.17,3.53,3.53,0,0,0,1-2.27c0-.27-.09-.41-.29-.41a2.31,2.31,0,0,1-.71-.07.54.54,0,0,1-.33-.3.94.94,0,0,1-.13-.48.84.84,0,0,1,.88-.85,1.06,1.06,0,0,1,.86.4,1.63,1.63,0,0,1,.33,1.07,4.83,4.83,0,0,1-1.34,3.33A4.14,4.14,0,0,1,115,120a2,2,0,0,1-1.35-.4,1.26,1.26,0,0,1-.45-1,5,5,0,0,1,.17-1l.59-2.32a3,3,0,0,0,.1-.56c0-.17-.06-.25-.2-.25C113.49,114.44,113,115,112.44,116Z"/><path class="cls-8" d="M126.62,117.76l.4.26a4.48,4.48,0,0,1-3.87,1.94,2.77,2.77,0,0,1-2-.68,2.25,2.25,0,0,1-.68-1.62,3.83,3.83,0,0,1,1.26-2.72,4.51,4.51,0,0,1,3.33-1.27,2.48,2.48,0,0,1,1.54.41,1.32,1.32,0,0,1,.52,1.11q0,2.16-4.23,2a6.68,6.68,0,0,0-.25,1.41c0,.55.32.82,1,.82A3.89,3.89,0,0,0,126.62,117.76Zm-3.65-1a2.58,2.58,0,0,0,2.07-.56,1.89,1.89,0,0,0,.55-1.26.9.9,0,0,0-.22-.61.8.8,0,0,0-.66-.25,1.18,1.18,0,0,0-1,.64A7.21,7.21,0,0,0,123,116.77Z"/><path class="cls-8" d="M128.44,119.78l1.44-5.54h-1.14l.11-.46h1.27c.33,0,.69,0,1.09,0l.57-.06h.33l-.42,1.5,0,0a2.8,2.8,0,0,1,2.16-1.53,1.34,1.34,0,0,1,.82.26.9.9,0,0,1,.34.75.84.84,0,0,1-.29.65.92.92,0,0,1-.6.24,1,1,0,0,1-.8-.43c-.22-.29-.38-.43-.5-.43s-.53.27-.88.8a7,7,0,0,0-.9,2.17l-.57,2.1Z"/><path class="cls-8" d="M139.28,120.15l-1.8-4.65c-.12-.35-.26-.53-.41-.53s-.39.23-.53.68a7.26,7.26,0,0,1-.27.78l-.39-.24q.7-2.52,2.1-2.52a1.27,1.27,0,0,1,.77.25,2.63,2.63,0,0,1,.72,1.17l1,2.67c.46-1.07.84-2,1.14-2.84s.72-1.25,1.26-1.25a.85.85,0,0,1,.61.25.79.79,0,0,1,.26.59.92.92,0,0,1-.21.61.72.72,0,0,1-.61.27,2.25,2.25,0,0,1-.42-.07l-.31-.07c-.11,0-.2.08-.26.25l-.58,1.48a25.35,25.35,0,0,1-2.42,4.67c-.93,1.39-1.94,2.09-3,2.09a1.33,1.33,0,0,1-.86-.29,1,1,0,0,1-.35-.78A1.08,1.08,0,0,1,135,122a1,1,0,0,1,.74-.29.8.8,0,0,1,.63.21,1.52,1.52,0,0,1,.28.57q.1.36.33.36c.26,0,.6-.22,1-.65A9.32,9.32,0,0,0,139.28,120.15Z"/><path class="cls-8" d="M147.09,120a3.24,3.24,0,0,1-2.12-.67,2.19,2.19,0,0,1-.82-1.8,3.35,3.35,0,0,1,1.41-2.69,4.87,4.87,0,0,1,3.12-1.13,3.41,3.41,0,0,1,2.11.63,2.08,2.08,0,0,1,.84,1.79,3.45,3.45,0,0,1-1.36,2.7A4.74,4.74,0,0,1,147.09,120Zm1.42-5.87a1.35,1.35,0,0,0-1,.41,5.37,5.37,0,0,0-.85,2.1,14.09,14.09,0,0,0-.42,2,.9.9,0,0,0,.25.65.93.93,0,0,0,.71.26,1.47,1.47,0,0,0,1-.37,5,5,0,0,0,.88-2.12,14.52,14.52,0,0,0,.46-2.09C149.55,114.38,149.2,114.09,148.51,114.09Z"/><path class="cls-8" d="M152.86,119.78l1.41-5.51H153l.13-.46h.93c.39,0,.84,0,1.37-.07l.73-.07h.33l-.33,1.22,0,0a3.51,3.51,0,0,1,2.53-1.25,1.74,1.74,0,0,1,1.05.3,1,1,0,0,1,.41.88,3,3,0,0,1-.1.66l-.64,2.56a3.74,3.74,0,0,0-.12.71c0,.14,0,.22.15.22.44,0,.88-.5,1.33-1.49l.48.11a4.62,4.62,0,0,1-1.22,1.76,2.29,2.29,0,0,1-1.47.58,1.33,1.33,0,0,1-.95-.34,1,1,0,0,1-.37-.77,4.52,4.52,0,0,1,.15-1l.73-2.86a1.42,1.42,0,0,0,.1-.48.24.24,0,0,0-.27-.26,1,1,0,0,0-.38.09,2.41,2.41,0,0,0-.5.26,5,5,0,0,0-.68.51,1.73,1.73,0,0,0-.42.44L155,119.78Z"/><path class="cls-8" d="M168.28,117.76l.4.26a4.48,4.48,0,0,1-3.87,1.94,2.77,2.77,0,0,1-2-.68,2.24,2.24,0,0,1-.67-1.62,3.85,3.85,0,0,1,1.25-2.72,4.51,4.51,0,0,1,3.33-1.27,2.48,2.48,0,0,1,1.54.41,1.33,1.33,0,0,1,.53,1.11c0,1.44-1.42,2.1-4.24,2a6.68,6.68,0,0,0-.25,1.41c0,.55.32.82,1,.82A3.89,3.89,0,0,0,168.28,117.76Zm-3.65-1a2.56,2.56,0,0,0,2.07-.56,1.89,1.89,0,0,0,.55-1.26.9.9,0,0,0-.22-.61.8.8,0,0,0-.65-.25,1.19,1.19,0,0,0-1,.64A7.21,7.21,0,0,0,164.63,116.77Z"/></svg>