<svg id="Layer_1" data-name="Layer 1" xmlns="http://www.w3.org/2000/svg" xmlns:xlink="http://www.w3.org/1999/xlink" viewBox="0 0 50 50"><defs><style>.cls-1{fill:url(#linear-gradient);}.cls-2{fill:url(#linear-gradient-2);}.cls-3{mask:url(#mask);}.cls-4,.cls-5{fill:#20324f;}.cls-5{fill-rule:evenodd;}.cls-6{mask:url(#mask-2);}.cls-7,.cls-8{fill:#f5a425;}.cls-7{stroke:#20324f;stroke-width:0.03px;}</style><linearGradient id="linear-gradient" x1="174.95" y1="-472.08" x2="171.52" y2="-488.36" gradientTransform="matrix(-0.65, 0.46, -0.47, -0.71, -82.18, -403.65)" gradientUnits="userSpaceOnUse"><stop offset="0.33"/><stop offset="0.48" stop-color="#434343"/><stop offset="0.67" stop-color="#939393"/><stop offset="0.82" stop-color="#cdcdcd"/><stop offset="0.94" stop-color="#f1f1f1"/><stop offset="1" stop-color="#fff"/></linearGradient><linearGradient id="linear-gradient-2" x1="20.77" y1="26.92" x2="13.47" y2="22.5" gradientTransform="matrix(1, 0, 0, 1, 0, 0)" xlink:href="#linear-gradient"/><mask id="mask" x="18.88" y="5.07" width="20.27" height="20.99" maskUnits="userSpaceOnUse"><polygon class="cls-1" points="18.88 14.63 30.59 5.07 39.15 20.13 32.86 21.76 18.88 14.63"/></mask><mask id="mask-2" x="11.48" y="13.98" width="19.33" height="19.68" maskUnits="userSpaceOnUse"><polygon class="cls-2" points="30.81 26.26 17.98 33.66 11.48 17.27 17.91 16.75 30.81 26.26"/></mask></defs><g class="cls-3"><path class="cls-4" d="M37.79,19.42c-6.41,3.93-14.09-6.82-14.07-6.85s1.69,17.65-2.86,8.07c-.35-.75,1.73,4.9,3.31,5.38.61.18,1.21-.3,1.7-2.22a33.81,33.81,0,0,0,.63-4.45c7.38,3.46,11.85-.27,11.29.07Z"/><path class="cls-5" d="M23.75,12.66a.33.33,0,0,1,0,.1l0,.41c0,.46.07.92.1,1.39.09,1.33.17,2.64.19,3.91A27.88,27.88,0,0,1,24,22c-.06.54-.21,1.62-.66,1.8s-.72-.24-.95-.53a7.08,7.08,0,0,1-.67-1c-.28-.48-.54-1-.79-1.5.11.3.33.82.37.92a23.11,23.11,0,0,0,1,2.12c.41.74,1.16,2,1.86,2.17.95.29,1.45-1.29,1.68-2.2a19,19,0,0,0,.42-2.43c.07-.66.13-1.35.21-2v0h0a13.41,13.41,0,0,0,8.22,1.31A9.56,9.56,0,0,0,37,19.9l.43-.22a6,6,0,0,1-3.18.7A7.67,7.67,0,0,1,32,19.86a17,17,0,0,1-5.7-4.17,26.28,26.28,0,0,1-1.87-2.14c-.19-.22-.36-.45-.53-.69a1.82,1.82,0,0,0-.14-.19Z"/><path class="cls-5" d="M23.77,12.75h0c0,.15,0,.28,0,.43,0,.45.08.92.1,1.39.1,1.32.17,2.63.2,3.9A27.7,27.7,0,0,1,24,22c-.06.56-.21,1.63-.67,1.83s-.73-.25-1-.54a9.51,9.51,0,0,1-.68-1c-.18-.34-.37-.68-.55-1l.18.46c.32.72.66,1.43,1,2.09s1.15,2,1.85,2.16c.93.29,1.42-1.29,1.65-2.18a17.22,17.22,0,0,0,.42-2.42c.07-.66.13-1.35.21-2v-.07l0,0a13.43,13.43,0,0,0,8.2,1.3,8.93,8.93,0,0,0,1.69-.48,5.79,5.79,0,0,1-2.17.27A7.63,7.63,0,0,1,32,19.88a17.34,17.34,0,0,1-5.7-4.17c-.63-.65-1.27-1.37-1.88-2.14-.17-.22-.35-.45-.51-.68l-.1-.14Z"/><path class="cls-5" d="M23.81,12.84c0,.12,0,.23,0,.35,0,.48.06.94.1,1.39.09,1.33.16,2.63.18,3.9A26.16,26.16,0,0,1,24,22c-.06.56-.21,1.64-.69,1.84s-.74-.24-1-.54a9,9,0,0,1-.68-1c-.11-.19-.21-.38-.31-.58a19.64,19.64,0,0,0,1,2.06c.41.73,1.15,1.93,1.84,2.14.93.29,1.41-1.27,1.63-2.16a17.21,17.21,0,0,0,.41-2.42c.09-.66.14-1.34.22-2v-.1l.07,0a13.4,13.4,0,0,0,8.16,1.33c.37-.08.74-.17,1.11-.28a6.36,6.36,0,0,1-1.57.12A7.6,7.6,0,0,1,32,19.9a17.09,17.09,0,0,1-5.71-4.17,26.34,26.34,0,0,1-1.87-2.13l-.53-.69,0-.07Z"/><path class="cls-5" d="M23.83,12.92a2.46,2.46,0,0,0,0,.28c0,.47.07.93.1,1.39.09,1.32.16,2.62.18,3.89A26.4,26.4,0,0,1,24,22.05c-.07.57-.22,1.65-.7,1.86s-.76-.24-1-.55a8.4,8.4,0,0,1-.69-1,.71.71,0,0,1-.08-.15c.25.56.51,1.1.79,1.61.41.72,1.15,1.93,1.83,2.13.91.28,1.39-1.28,1.62-2.15a20.18,20.18,0,0,0,.41-2.41c.08-.66.13-1.35.21-2l0-.13.08,0a13.43,13.43,0,0,0,8.15,1.32c.21,0,.45-.09.67-.15a5.25,5.25,0,0,1-1.12,0A7.14,7.14,0,0,1,32,19.93a17.3,17.3,0,0,1-5.72-4.17,28.44,28.44,0,0,1-1.88-2.14c-.17-.22-.35-.45-.52-.69Z"/><path class="cls-5" d="M23.85,13a1.49,1.49,0,0,1,0,.21c0,.47.07.93.1,1.38.1,1.33.16,2.62.19,3.88a26.39,26.39,0,0,1-.1,3.58c-.07.59-.22,1.67-.71,1.89s-.78-.24-1-.56a6.3,6.3,0,0,1-.55-.8q.29.62.6,1.2c.4.71,1.14,1.91,1.82,2.11.9.28,1.37-1.27,1.59-2.13a20.18,20.18,0,0,0,.41-2.41c.07-.65.13-1.34.21-2l0-.16.11,0a13.43,13.43,0,0,0,8.12,1.33l.32-.07a4.69,4.69,0,0,1-.75,0A7.2,7.2,0,0,1,32,20a17.48,17.48,0,0,1-5.73-4.17c-.63-.66-1.26-1.38-1.87-2.14-.17-.21-.33-.43-.5-.65Z"/><path class="cls-5" d="M23.89,13.09a.48.48,0,0,1,0,.12c0,.47.07.93.11,1.39.09,1.32.16,2.61.19,3.88a28,28,0,0,1-.11,3.57c-.07.61-.22,1.7-.73,1.9s-.79-.23-1.06-.56c-.11-.15-.23-.3-.34-.48.14.28.29.57.44.84.4.72,1.13,1.92,1.8,2.12.89.28,1.36-1.28,1.57-2.12a20.36,20.36,0,0,0,.41-2.4c.07-.67.13-1.35.21-2l0-.19.14.06a13.43,13.43,0,0,0,8.1,1.32,0,0,0,0,0,0,0h-.44A7.26,7.26,0,0,1,31.94,20a17.37,17.37,0,0,1-5.73-4.18c-.63-.67-1.27-1.38-1.88-2.15-.15-.18-.29-.38-.44-.57Z"/><path class="cls-5" d="M23.91,13.16s0,0,0,.06c0,.46.06.94.1,1.38.09,1.32.15,2.61.18,3.88a26.43,26.43,0,0,1-.1,3.58c-.07.61-.23,1.7-.74,1.93s-.8-.24-1.07-.58c-.07-.08-.12-.16-.19-.23.1.19.2.38.31.56.39.71,1.12,1.91,1.79,2.11.87.27,1.33-1.28,1.54-2.11a19.84,19.84,0,0,0,.41-2.39c.08-.66.12-1.34.21-2l0-.24.16.07a13.46,13.46,0,0,0,7.81,1.39h-.15A7.49,7.49,0,0,1,31.94,20a17.45,17.45,0,0,1-5.74-4.18c-.64-.67-1.27-1.38-1.88-2.15-.14-.17-.27-.35-.41-.53Z"/><path class="cls-5" d="M23.94,13.24c0,.46.07.91.1,1.37.09,1.31.16,2.6.18,3.86a28.33,28.33,0,0,1-.1,3.59c-.06.63-.23,1.73-.75,2s-.82-.23-1.1-.58l0,0,.18.34c.39.7,1.12,1.89,1.78,2.09.86.27,1.32-1.27,1.52-2.08a20,20,0,0,0,.41-2.4c.07-.66.13-1.34.21-2l0-.27.18.09a13.7,13.7,0,0,0,7.55,1.42A7.57,7.57,0,0,1,31.93,20a17.23,17.23,0,0,1-5.74-4.17,26.53,26.53,0,0,1-1.88-2.15l-.37-.47Z"/><path class="cls-5" d="M24,13.32c0,.44.07.86.11,1.29.08,1.32.15,2.61.17,3.87a28.33,28.33,0,0,1-.1,3.59c-.07.63-.23,1.73-.77,2-.36.16-.73-.14-1-.46a1.1,1.1,0,0,1,.09.14c.39.69,1.11,1.89,1.77,2.09.85.26,1.29-1.28,1.5-2.07a19.85,19.85,0,0,0,.4-2.39c.07-.66.13-1.35.21-2l0-.3.22.1a13.79,13.79,0,0,0,7.28,1.44,8.17,8.17,0,0,1-1.93-.49,17.51,17.51,0,0,1-5.74-4.18c-.64-.67-1.28-1.38-1.89-2.15-.1-.14-.22-.28-.33-.42Z"/><path class="cls-5" d="M24,13.4c0,.4.07.81.09,1.22.09,1.31.16,2.6.18,3.86a26.63,26.63,0,0,1-.1,3.59c-.07.65-.24,1.75-.77,2-.33.14-.66-.08-.93-.35.39.69,1.11,1.87,1.75,2.07.84.25,1.28-1.28,1.47-2.06a18.18,18.18,0,0,0,.41-2.38c.08-.66.12-1.35.2-2l.06-.33.21.1a13.85,13.85,0,0,0,7.06,1.47,7.47,7.47,0,0,1-1.71-.46,17.48,17.48,0,0,1-5.75-4.19c-.64-.65-1.26-1.37-1.89-2.14A2.93,2.93,0,0,0,24,13.4Z"/><path class="cls-5" d="M24,13.48c0,.38.06.76.08,1.14.09,1.31.16,2.6.19,3.85a30.46,30.46,0,0,1-.11,3.6c-.08.67-.25,1.78-.79,2a.77.77,0,0,1-.83-.26c.38.7,1.06,1.75,1.66,1.94.82.25,1.25-1.29,1.45-2.05a19.69,19.69,0,0,0,.4-2.38c.07-.66.13-1.35.21-2l0-.36.25.11a14.19,14.19,0,0,0,6.82,1.49,8.55,8.55,0,0,1-1.47-.44,17.27,17.27,0,0,1-5.77-4.18c-.64-.66-1.28-1.39-1.89-2.15l-.24-.3Z"/><path class="cls-5" d="M24.05,13.55c0,.36.05.72.08,1.07.08,1.32.15,2.6.17,3.86a26.78,26.78,0,0,1-.1,3.6c-.08.68-.25,1.78-.81,2a.74.74,0,0,1-.76-.18c.4.68,1,1.63,1.59,1.8l.19,0c.67,0,1.07-1.38,1.23-2.06a16.51,16.51,0,0,0,.41-2.37c.07-.67.12-1.35.21-2l0-.4.27.13a14,14,0,0,0,6.6,1.5,9.32,9.32,0,0,1-1.27-.39A17.3,17.3,0,0,1,26.13,16c-.63-.67-1.27-1.39-1.88-2.16l-.2-.25Z"/><path class="cls-5" d="M24.08,13.63c0,.33,0,.66.07,1,.08,1.31.15,2.6.18,3.86a26.91,26.91,0,0,1-.11,3.61c-.07.68-.26,1.79-.81,2a.67.67,0,0,1-.7-.12c.4.68,1,1.53,1.51,1.7l.2,0c.65,0,1-1.38,1.2-2a15.1,15.1,0,0,0,.4-2.36c.09-.68.13-1.35.22-2l0-.42.31.14A14.18,14.18,0,0,0,33,20.51a7,7,0,0,1-1.07-.35A17.16,17.16,0,0,1,26.12,16c-.64-.67-1.27-1.39-1.89-2.15l-.15-.2Z"/><path class="cls-5" d="M24.11,13.7c0,.31,0,.62.06.94q.13,1.95.18,3.84a28.68,28.68,0,0,1-.11,3.61c-.08.7-.26,1.82-.83,2.06a.64.64,0,0,1-.64-.07c.4.66,1,1.44,1.45,1.59a.36.36,0,0,0,.2,0c.63,0,1-1.38,1.18-2A16.51,16.51,0,0,0,26,21.32c.07-.67.13-1.35.21-2l.05-.46.32.15a14.3,14.3,0,0,0,6.18,1.5,8.11,8.11,0,0,1-.88-.28A17.58,17.58,0,0,1,26.11,16c-.64-.67-1.27-1.39-1.88-2.16a.79.79,0,0,1-.12-.15Z"/><path class="cls-5" d="M24.13,13.78c0,.29,0,.57.06.85.08,1.31.15,2.59.17,3.85a28.93,28.93,0,0,1-.09,3.62c-.09.7-.27,1.82-.85,2.08a.73.73,0,0,1-.58,0c.38.62.92,1.36,1.39,1.5a.57.57,0,0,0,.18,0c.63,0,1-1.37,1.18-2a20.2,20.2,0,0,0,.4-2.37c.07-.66.13-1.35.21-2l.05-.49.35.16a14.59,14.59,0,0,0,6,1.5l-.69-.23A17.61,17.61,0,0,1,26.1,16a25.22,25.22,0,0,1-1.89-2.15l-.08-.09Z"/><path class="cls-5" d="M24.16,13.86c0,.26,0,.51.05.77.09,1.31.15,2.6.19,3.84a33.23,33.23,0,0,1-.11,3.63c-.09.73-.28,1.85-.86,2.1a.65.65,0,0,1-.53,0c.38.6.89,1.29,1.34,1.42a.58.58,0,0,0,.18,0c.62,0,1-1.38,1.15-2a18.16,18.16,0,0,0,.4-2.36c.07-.67.12-1.35.2-2l.07-.53.36.18a14.8,14.8,0,0,0,5.78,1.5l-.51-.18a17.61,17.61,0,0,1-5.79-4.2c-.63-.67-1.27-1.38-1.89-2.16l0,0Z"/><path class="cls-5" d="M24.19,13.93c0,.23,0,.47,0,.71.08,1.3.14,2.59.17,3.84a25.49,25.49,0,0,1-.11,3.62c-.08.74-.27,1.87-.87,2.13a.66.66,0,0,1-.48,0c.38.59.85,1.24,1.29,1.37a.35.35,0,0,0,.17,0c.61,0,1-1.37,1.14-2a20.22,20.22,0,0,0,.4-2.35c.07-.68.12-1.37.21-2l.06-.57.39.19a14.73,14.73,0,0,0,5.58,1.49l-.32-.11a17.54,17.54,0,0,1-5.79-4.21,28.52,28.52,0,0,1-1.89-2.14Z"/><path class="cls-5" d="M24.22,14c0,.22,0,.43,0,.64.08,1.3.15,2.59.17,3.84a29,29,0,0,1-.11,3.63c-.09.74-.27,1.89-.88,2.15a.74.74,0,0,1-.44,0c.37.56.83,1.16,1.25,1.29a.45.45,0,0,0,.16,0c.6,0,1-1.37,1.12-1.95a20,20,0,0,0,.4-2.36c.08-.66.13-1.35.21-2l.06-.59.42.19A14.9,14.9,0,0,0,32,20.36l-.15-.06a17.3,17.3,0,0,1-5.8-4.2c-.62-.65-1.25-1.35-1.84-2.1Z"/><path class="cls-5" d="M24.24,14.07c0,.19,0,.38,0,.57.08,1.3.14,2.59.17,3.83a27.25,27.25,0,0,1-.11,3.64c-.09.76-.28,1.9-.9,2.17a.66.66,0,0,1-.39,0c.36.55.81,1.12,1.21,1.23a.2.2,0,0,0,.15,0c.58,0,1-1.35,1.11-1.93a21.92,21.92,0,0,0,.39-2.36c.07-.65.13-1.34.21-2l.07-.63.43.2a15.07,15.07,0,0,0,5.21,1.48,17.62,17.62,0,0,1-5.78-4.2c-.61-.64-1.22-1.32-1.81-2.05Z"/><path class="cls-5" d="M24.27,14.15c0,.17,0,.33,0,.49.08,1.3.15,2.58.17,3.84a27.16,27.16,0,0,1-.11,3.63c-.09.78-.28,1.92-.91,2.19a.55.55,0,0,1-.35.05,3.06,3.06,0,0,0,1.15,1.19.92.92,0,0,0,.16,0c.57,0,.95-1.36,1.08-1.91a17.73,17.73,0,0,0,.4-2.35c.08-.66.12-1.34.21-2l.07-.67.47.22a15.14,15.14,0,0,0,5,1.45A17.69,17.69,0,0,1,26,16.14c-.59-.61-1.18-1.28-1.76-2Z"/></g><g class="cls-6"><path class="cls-4" d="M12.72,18.2c6.85-2.76,13.06,9.21,13,9.24S26.36,9.7,29.62,20c.25.8-1.07-5.15-2.58-5.9-.57-.29-1.24.08-2,1.9a32.76,32.76,0,0,0-1.2,4.28C17,15.54,12.13,18.44,12.72,18.2Z"/><path class="cls-5" d="M25.74,27.35v-.1l0-.41c0-.46,0-.92.08-1.39.08-1.33.17-2.64.32-3.91a27.79,27.79,0,0,1,.54-3.5c.14-.52.42-1.56.89-1.66s.68.37.87.69A7.19,7.19,0,0,1,29,18.19c.22.52.41,1.07.59,1.62-.07-.32-.22-.87-.24-1-.23-.78-.46-1.55-.75-2.28s-.89-2.14-1.56-2.47c-.9-.46-1.6,1-1.95,1.88a19.84,19.84,0,0,0-.73,2.33c-.15.64-.3,1.31-.46,2v0l0,0a13.73,13.73,0,0,0-7.95-2.73,8.9,8.9,0,0,0-2.32.33l-.46.15a5.89,5.89,0,0,1,3.24-.14,8.14,8.14,0,0,1,2.16.91,18.53,18.53,0,0,1,5.1,5.12c.54.77,1.07,1.58,1.57,2.44.15.25.29.51.43.78,0,.07.07.13.11.21Z"/><path class="cls-5" d="M25.72,27.25h0l0-.42c0-.46.05-.93.08-1.39.08-1.33.18-2.63.31-3.9A27.05,27.05,0,0,1,26.7,18c.13-.54.42-1.57.89-1.69s.69.37.91.71A8.9,8.9,0,0,1,29,18.18c.14.37.29.74.42,1.13,0-.16-.08-.33-.13-.48-.22-.78-.46-1.54-.74-2.26s-.89-2.12-1.55-2.45c-.88-.45-1.58,1-1.92,1.86a18.6,18.6,0,0,0-.72,2.33c-.16.63-.31,1.3-.47,2l0,.07,0,0a13.84,13.84,0,0,0-7.93-2.73,8.72,8.72,0,0,0-1.74.18,5.7,5.7,0,0,1,2.18.11,8.41,8.41,0,0,1,2.18.91,18.53,18.53,0,0,1,5.1,5.12c.53.76,1.07,1.58,1.57,2.44.14.26.3.51.43.77,0,.06.05.1.07.15Z"/><path class="cls-5" d="M25.7,27.16c0-.12,0-.23,0-.35,0-.48.05-.94.07-1.39.09-1.33.19-2.63.32-3.89a27.21,27.21,0,0,1,.56-3.5c.13-.55.42-1.59.91-1.71s.71.38.91.72a9.11,9.11,0,0,1,.55,1.13c.08.2.16.41.23.63a20.59,20.59,0,0,0-.71-2.22c-.31-.79-.89-2.11-1.54-2.44-.89-.44-1.56,1-1.9,1.86a18.3,18.3,0,0,0-.72,2.31c-.17.64-.3,1.3-.47,2l0,.1-.06-.05A13.85,13.85,0,0,0,16,17.59a10.92,10.92,0,0,0-1.13.08,5.83,5.83,0,0,1,1.56.16,7.74,7.74,0,0,1,2.17.92,18.29,18.29,0,0,1,5.11,5.12c.54.76,1.07,1.58,1.57,2.44l.44.78,0,.07Z"/><path class="cls-5" d="M25.69,27.08a2.72,2.72,0,0,0,0-.28c0-.47.06-.93.08-1.39.08-1.33.19-2.62.33-3.88A29.59,29.59,0,0,1,26.65,18c.15-.56.44-1.6.94-1.72s.73.37.93.72a8.57,8.57,0,0,1,.55,1.14l.06.15c-.18-.59-.37-1.16-.58-1.72-.31-.78-.88-2.11-1.53-2.43-.87-.43-1.54,1-1.88,1.85a17.79,17.79,0,0,0-.71,2.31c-.17.64-.31,1.31-.47,2l0,.13-.07-.06A13.91,13.91,0,0,0,16,17.61c-.22,0-.46,0-.68,0a6,6,0,0,1,1.11.17,7.45,7.45,0,0,1,2.16.92,18.19,18.19,0,0,1,5.12,5.12c.55.76,1.08,1.58,1.58,2.44.15.25.29.51.43.77v0Z"/><path class="cls-5" d="M25.67,27c0-.07,0-.14,0-.2,0-.48.05-.94.09-1.39.07-1.33.17-2.62.31-3.87A25.87,25.87,0,0,1,26.64,18c.14-.57.43-1.61.94-1.74s.75.37,1,.74a6.06,6.06,0,0,1,.45.88c-.14-.44-.3-.87-.45-1.29-.3-.78-.88-2.09-1.52-2.41-.85-.43-1.53,1-1.85,1.83a20.09,20.09,0,0,0-.72,2.31c-.15.63-.29,1.31-.46,2l0,.15-.11-.07A13.88,13.88,0,0,0,16,17.64h-.32a4.91,4.91,0,0,1,.75.13,7.62,7.62,0,0,1,2.17.92,18.59,18.59,0,0,1,5.12,5.12c.55.77,1.08,1.58,1.58,2.45.14.23.27.48.4.72Z"/><path class="cls-5" d="M25.65,26.9a.53.53,0,0,1,0-.12c0-.47.05-.93.08-1.4.08-1.32.18-2.61.31-3.86A29.55,29.55,0,0,1,26.62,18c.14-.59.44-1.64,1-1.76s.74.37,1,.75c.09.16.19.34.28.53-.1-.3-.22-.61-.33-.91-.3-.77-.87-2.09-1.51-2.41-.84-.43-1.5,1-1.82,1.82a16.78,16.78,0,0,0-.71,2.31c-.16.64-.3,1.3-.47,2l-.05.18-.14-.08A13.76,13.76,0,0,0,16,17.67s0,0,0,0l.42.08a7.78,7.78,0,0,1,2.19.92,18.52,18.52,0,0,1,5.13,5.13c.54.77,1.07,1.58,1.57,2.45.13.21.25.44.37.65Z"/><path class="cls-5" d="M25.64,26.82v-.05c0-.47.06-.94.08-1.39.08-1.32.19-2.61.32-3.87A26,26,0,0,1,26.61,18c.14-.59.44-1.65,1-1.78s.77.38,1,.75l.15.27c-.07-.21-.15-.41-.23-.61-.3-.77-.86-2.08-1.5-2.4-.82-.42-1.47,1-1.79,1.81a16.64,16.64,0,0,0-.71,2.3c-.17.64-.3,1.31-.47,2l-.07.23-.14-.1a13.89,13.89,0,0,0-7.55-2.74l.15,0a7.82,7.82,0,0,1,2.18.91,18.57,18.57,0,0,1,5.13,5.14c.54.77,1.08,1.59,1.59,2.45l.33.59Z"/><path class="cls-5" d="M25.61,26.74c0-.46.06-.91.09-1.37.08-1.31.18-2.6.32-3.85A26.26,26.26,0,0,1,26.59,18c.14-.61.45-1.67,1-1.8s.78.37,1,.77a.05.05,0,0,0,0,0,2.67,2.67,0,0,0-.14-.36c-.29-.76-.85-2.07-1.49-2.38-.81-.42-1.46,1-1.77,1.79a18.11,18.11,0,0,0-.7,2.3c-.17.64-.31,1.3-.48,2l-.06.26-.17-.12a14.2,14.2,0,0,0-7.28-2.72,7.76,7.76,0,0,1,2.08.9,18.55,18.55,0,0,1,5.14,5.13c.54.76,1.08,1.59,1.58,2.45.1.18.2.35.29.53Z"/><path class="cls-5" d="M25.6,26.66c0-.44.06-.87.07-1.29.09-1.32.19-2.61.33-3.86A26,26,0,0,1,26.57,18c.14-.62.45-1.67,1-1.81.38-.09.71.28.95.64,0,0,0-.11-.06-.15-.3-.76-.86-2.07-1.48-2.38-.81-.4-1.44,1-1.75,1.78a17.64,17.64,0,0,0-.71,2.3c-.16.64-.3,1.3-.46,2L24,20.6l-.2-.13a14.26,14.26,0,0,0-7-2.7,8.4,8.4,0,0,1,1.84.83,18.55,18.55,0,0,1,5.14,5.13c.55.77,1.09,1.59,1.59,2.46.08.15.18.31.26.47Z"/><path class="cls-5" d="M25.59,26.57c0-.4,0-.81.07-1.22.08-1.31.18-2.59.32-3.84A28.13,28.13,0,0,1,26.54,18c.16-.62.47-1.69,1-1.83.33-.07.64.19.86.51A5.23,5.23,0,0,0,27,14.3c-.79-.4-1.43,1-1.72,1.78a20,20,0,0,0-.71,2.27c-.16.65-.3,1.32-.46,2l-.1.32-.2-.14A14.33,14.33,0,0,0,17,17.82a8.21,8.21,0,0,1,1.62.76,18.46,18.46,0,0,1,5.14,5.14c.56.76,1.08,1.58,1.6,2.45a4.1,4.1,0,0,0,.23.4Z"/><path class="cls-5" d="M25.56,26.49c0-.38.05-.76.08-1.15.08-1.31.18-2.59.32-3.83A27.84,27.84,0,0,1,26.52,18c.17-.65.48-1.71,1.05-1.85a.84.84,0,0,1,.79.4c-.3-.76-.83-1.92-1.4-2.2-.77-.39-1.4,1-1.7,1.77a19.56,19.56,0,0,0-.7,2.28c-.16.64-.3,1.31-.47,2l-.09.34-.23-.15a14.64,14.64,0,0,0-6.55-2.67,9.57,9.57,0,0,1,1.4.69,18.39,18.39,0,0,1,5.16,5.14c.55.77,1.09,1.6,1.59,2.46l.19.34Z"/><path class="cls-5" d="M25.55,26.41l.06-1.07c.1-1.31.19-2.59.33-3.84A26.16,26.16,0,0,1,26.51,18c.16-.66.47-1.72,1-1.87a.76.76,0,0,1,.73.32A4.56,4.56,0,0,0,27,14.34l-.19-.06c-.66-.1-1.23,1.18-1.48,1.82a17.82,17.82,0,0,0-.71,2.28c-.16.64-.29,1.31-.47,2l-.1.39-.25-.18a14.57,14.57,0,0,0-6.33-2.63,9.72,9.72,0,0,1,1.21.6,18.69,18.69,0,0,1,5.16,5.15c.55.77,1.08,1.59,1.58,2.46l.17.28Z"/><path class="cls-5" d="M25.53,26.33l.06-1c.09-1.31.19-2.6.32-3.84a26.71,26.71,0,0,1,.58-3.56c.16-.66.48-1.72,1.06-1.87a.73.73,0,0,1,.68.24A4.24,4.24,0,0,0,27,14.37a1.06,1.06,0,0,0-.19-.06c-.64-.1-1.21,1.19-1.45,1.8a15.37,15.37,0,0,0-.71,2.27c-.17.65-.29,1.32-.47,2l-.1.41-.28-.18A14.66,14.66,0,0,0,17.63,18a8.23,8.23,0,0,1,1,.53,18.45,18.45,0,0,1,5.17,5.15c.55.77,1.08,1.6,1.59,2.46l.12.22Z"/><path class="cls-5" d="M25.52,26.26c0-.32,0-.63.06-.94.07-1.3.18-2.58.31-3.83a26.56,26.56,0,0,1,.58-3.55c.17-.68.48-1.75,1.08-1.89a.66.66,0,0,1,.62.18A3.94,3.94,0,0,0,27,14.4a.47.47,0,0,0-.19-.06c-.63-.1-1.19,1.18-1.44,1.78a16.63,16.63,0,0,0-.7,2.27c-.16.65-.3,1.31-.47,2L24,20.8l-.3-.2A14.85,14.85,0,0,0,17.83,18a6.66,6.66,0,0,1,.83.44,18.59,18.59,0,0,1,5.17,5.15q.83,1.15,1.59,2.46l.1.17Z"/><path class="cls-5" d="M25.5,26.18c0-.29,0-.58.05-.86.09-1.31.19-2.58.33-3.83a27,27,0,0,1,.56-3.56c.18-.68.5-1.76,1.11-1.91a.69.69,0,0,1,.57.13,3.91,3.91,0,0,0-1.19-1.73.49.49,0,0,0-.17-.06c-.63-.1-1.18,1.18-1.42,1.77a17.66,17.66,0,0,0-.7,2.27c-.16.64-.3,1.31-.47,2l-.12.47-.32-.21A15.33,15.33,0,0,0,18,18.09l.65.35a18.81,18.81,0,0,1,5.17,5.17,28.18,28.18,0,0,1,1.6,2.46.54.54,0,0,1,.06.11Z"/><path class="cls-5" d="M25.48,26.09c0-.26,0-.51.05-.77.08-1.31.19-2.59.31-3.83a32.44,32.44,0,0,1,.58-3.57c.18-.7.51-1.78,1.12-1.93a.67.67,0,0,1,.52.1,3.67,3.67,0,0,0-1.13-1.64.67.67,0,0,0-.18-.07c-.61-.08-1.17,1.19-1.4,1.76a18.51,18.51,0,0,0-.69,2.26c-.16.65-.3,1.32-.46,2l-.14.51-.34-.24a15.36,15.36,0,0,0-5.52-2.49l.48.26a18.7,18.7,0,0,1,5.18,5.17c.55.77,1.09,1.59,1.59,2.46l0,0Z"/><path class="cls-5" d="M25.46,26c0-.24,0-.48.05-.71.08-1.31.19-2.59.32-3.83a26.71,26.71,0,0,1,.58-3.56c.18-.72.51-1.8,1.13-2A.67.67,0,0,1,28,16a3.63,3.63,0,0,0-1.1-1.58.33.33,0,0,0-.16-.05c-.61-.09-1.16,1.18-1.39,1.73a21.3,21.3,0,0,0-.69,2.27c-.16.65-.3,1.32-.47,2l-.13.55-.37-.25a15.51,15.51,0,0,0-5.33-2.46l.31.18a18.44,18.44,0,0,1,5.18,5.17A27.94,27.94,0,0,1,25.46,26Z"/><path class="cls-5" d="M25.44,25.94c0-.21,0-.43,0-.63.08-1.31.18-2.59.32-3.83a28.59,28.59,0,0,1,.58-3.57c.18-.72.51-1.82,1.15-2A.78.78,0,0,1,28,16a3.49,3.49,0,0,0-1.06-1.5.44.44,0,0,0-.16-.06c-.59-.09-1.15,1.18-1.35,1.73a16.63,16.63,0,0,0-.7,2.27c-.17.64-.3,1.31-.47,2l-.14.58-.39-.27a15.74,15.74,0,0,0-5.14-2.41l.14.09a18.46,18.46,0,0,1,5.19,5.17c.53.74,1.06,1.55,1.55,2.39Z"/><path class="cls-5" d="M25.43,25.86l0-.56c.09-1.3.2-2.59.33-3.82a26.75,26.75,0,0,1,.58-3.58c.18-.73.52-1.83,1.17-2a.65.65,0,0,1,.39,0,3.19,3.19,0,0,0-1-1.43.3.3,0,0,0-.15,0c-.58-.09-1.13,1.17-1.34,1.72a18.66,18.66,0,0,0-.7,2.26c-.15.63-.3,1.3-.46,2L24.1,21l-.41-.27a15.78,15.78,0,0,0-5-2.38,18.88,18.88,0,0,1,5.16,5.16c.53.75,1,1.52,1.53,2.34Z"/><path class="cls-5" d="M25.41,25.79c0-.17,0-.33,0-.5.09-1.3.19-2.57.34-3.82a26.61,26.61,0,0,1,.57-3.57c.19-.75.53-1.85,1.18-2a.68.68,0,0,1,.35,0,3.17,3.17,0,0,0-1-1.37l-.15,0c-.57-.08-1.12,1.18-1.32,1.71a18.49,18.49,0,0,0-.7,2.25c-.16.64-.29,1.31-.46,2l-.16.64-.43-.3a15.74,15.74,0,0,0-4.78-2.31,18.78,18.78,0,0,1,5,5.07c.51.71,1,1.47,1.49,2.28Z"/></g><path class="cls-7" d="M21.17,21.47c0,2.27,0,4.2-.11,5.23-.1.68-.21,1.13-.64,1.24a1.84,1.84,0,0,1-.85.12c-.32,0-.42.11-.42.23s.21.34.53.34,1.06-.12,1.59-.12h4.05c1.17.12,2.55.12,4.37.12.85,0,1.06,0,1.27-.57a23.15,23.15,0,0,0,.32-2.72.76.76,0,0,0-.1-.46l-.33-.12a.48.48,0,0,1-.1.35c-.11,1-.43,1.59-1,1.81a5.13,5.13,0,0,1-2.23.34c-2.45,0-3.2-.34-3.2-2V21.13a3.17,3.17,0,0,0-.75-.57l-.42-.34.85.46c3.09,1.81,4.9,3.18,8.73,2.5a10.17,10.17,0,0,0,7.35-6c-3.19,6.36-8.31,5-12.88,2.95a4,4,0,0,0,1.06.45,10.48,10.48,0,0,0,8.51-.45,7.61,7.61,0,0,1-2.65.45c-2.45-.11-5.43-1.47-8-2.95-2-1.13-2.45-1.82-4.68-2.38a9.92,9.92,0,0,0-11.61,5.9c3.31-6.36,8.31-5.11,13-3.06l-1.17-.35a10.22,10.22,0,0,0-8.41.46A4.43,4.43,0,0,1,16,17.72a13.41,13.41,0,0,1,5.22,1.48Zm3.19-5.11V11.82c0-.11,0-.23.11-.23.53,0,3.3.12,3.72.12,1.18.11,1.39.45,1.6.91a2.85,2.85,0,0,1,.11.9c0,.23,0,.34.21.34s.21-.34.21-.45.11-1.36.22-1.59a12.12,12.12,0,0,1,.1-1.59c0-.11,0-.23-.1-.23s-.22.12-.43.12a7.76,7.76,0,0,1-1,.11c-.42.11-5.64,0-6.38,0H19.36c-.32,0-.53,0-.53.23s.1.22.42.22.75,0,.86.12c.74.22.95.45,1.06,1.25v2.61l.43.11a13.62,13.62,0,0,1,2.76,1.59Z"/><rect class="cls-8" x="9.68" y="39.88" width="30.65" height="0.12"/><rect class="cls-8" x="9.68" y="31.78" width="30.65" height="0.12"/><path class="cls-8" d="M2,33.65,1.4,36.77h.28a1.84,1.84,0,0,0,.44-.05,1,1,0,0,0,.39-.27,2.09,2.09,0,0,0,.42-.67h.16L2.85,37H.28l0-.18H.67l.56-3.12H.82l0-.18H2.38l0,.18Z"/><path class="cls-8" d="M5.17,36.25l.12.1A1.27,1.27,0,0,1,4.15,37a.75.75,0,0,1-.6-.23.82.82,0,0,1-.2-.56,1.4,1.4,0,0,1,.37-.93,1.23,1.23,0,0,1,1-.44.65.65,0,0,1,.45.14.46.46,0,0,1,.16.38c0,.5-.42.72-1.25.69a2.55,2.55,0,0,0-.07.48.24.24,0,0,0,.28.28A1.1,1.1,0,0,0,5.17,36.25ZM4.1,35.91a.62.62,0,0,0,.77-.62.37.37,0,0,0-.06-.21.24.24,0,0,0-.2-.09.35.35,0,0,0-.3.22A2.56,2.56,0,0,0,4.1,35.91Z"/><path class="cls-8" d="M7.16,34.9h.61l-.32,1.4c0,.14,0,.23,0,.27s0,.13.08.13.21-.17.32-.5l.13.1c-.18.47-.41.71-.69.71a.41.41,0,0,1-.41-.35.74.74,0,0,1-.59.35.59.59,0,0,1-.47-.22.78.78,0,0,1-.19-.55,1.51,1.51,0,0,1,.34-1,1,1,0,0,1,.77-.42.39.39,0,0,1,.39.31h0ZM6.75,35a.23.23,0,0,0-.21.13,3.82,3.82,0,0,0-.22.75,5.84,5.84,0,0,0-.14.75c0,.13.06.19.18.19a.43.43,0,0,0,.29-.17A1.56,1.56,0,0,0,6.91,36,4.25,4.25,0,0,0,7,35.36a.38.38,0,0,0-.08-.23A.24.24,0,0,0,6.75,35Z"/><path class="cls-8" d="M8.24,37l.42-1.9H8.33l0-.16h.37l.33,0,.16,0h.1l-.12.52h0c.2-.36.42-.53.64-.53a.36.36,0,0,1,.24.09.33.33,0,0,1,.1.26.29.29,0,0,1-.09.22.21.21,0,0,1-.17.08.27.27,0,0,1-.24-.15c-.06-.09-.11-.14-.15-.14s-.15.09-.26.27a2.81,2.81,0,0,0-.26.75L8.85,37Z"/><path class="cls-8" d="M10.52,37l.42-1.89h-.36l0-.16h.28l.4,0,.22,0h.1l-.1.42h0a1,1,0,0,1,.74-.43.45.45,0,0,1,.31.1.39.39,0,0,1,.13.31,1.78,1.78,0,0,1,0,.22l-.18.88a1.12,1.12,0,0,0,0,.24s0,.08.05.08.25-.17.39-.51l.14,0a1.54,1.54,0,0,1-.36.6.63.63,0,0,1-.43.2.35.35,0,0,1-.28-.12.34.34,0,0,1-.12-.26,1.76,1.76,0,0,1,.05-.33l.21-1a.51.51,0,0,0,0-.17c0-.06,0-.09-.08-.09l-.11,0-.15.09a1.48,1.48,0,0,0-.19.18.85.85,0,0,0-.13.15L11.14,37Z"/><path class="cls-8" d="M14.35,34.86,14,36.52a.22.22,0,0,0,0,.06.32.32,0,0,0,0,.08c0,.05,0,.08.06.08s.25-.18.36-.52l.13.1c-.16.46-.4.69-.73.69s-.43-.12-.43-.35a1,1,0,0,1,0-.26l.31-1.34h-.29l0-.16h.32l.32,0,.16,0ZM13.8,34a.35.35,0,0,1,.1-.26.3.3,0,0,1,.23-.11.31.31,0,0,1,.23.11.39.39,0,0,1,.09.26.4.4,0,0,1-.09.27.3.3,0,0,1-.46,0A.36.36,0,0,1,13.8,34Z"/><path class="cls-8" d="M14.8,37l.42-1.89h-.37l0-.16h.28l.4,0,.21,0h.1l-.1.42h0a1,1,0,0,1,.75-.43.45.45,0,0,1,.31.1.39.39,0,0,1,.12.31,1.34,1.34,0,0,1,0,.22l-.19.88a1.84,1.84,0,0,0,0,.24s0,.08,0,.08.26-.17.4-.51l.14,0a1.82,1.82,0,0,1-.36.6.66.66,0,0,1-.44.2.39.39,0,0,1-.39-.38,1.76,1.76,0,0,1,.05-.33l.21-1a.51.51,0,0,0,0-.17c0-.06,0-.09-.08-.09l-.11,0a.85.85,0,0,0-.15.09l-.2.18c-.07.08-.12.13-.12.15L15.42,37Z"/><path class="cls-8" d="M17.88,36.09a.68.68,0,0,1-.15-.42.7.7,0,0,1,.3-.58,1,1,0,0,1,.65-.24.88.88,0,0,1,.72.36c.07-.29.17-.44.3-.44a.17.17,0,0,1,.14.07.23.23,0,0,1,.06.16.22.22,0,0,1-.06.17.17.17,0,0,1-.12.06l-.14-.06s0,0-.07.07a.2.2,0,0,0,0,.1.32.32,0,0,0,0,.09,1.15,1.15,0,0,1,0,.14.73.73,0,0,1-.29.58,1,1,0,0,1-.67.23.94.94,0,0,1-.59-.2.66.66,0,0,0-.22.38.16.16,0,0,0,.13.16,1.7,1.7,0,0,0,.37,0,6.39,6.39,0,0,1,.77,0,.59.59,0,0,1,.33.17.5.5,0,0,1,.14.35.86.86,0,0,1-.37.72,1.6,1.6,0,0,1-1,.29,1.42,1.42,0,0,1-.67-.14.45.45,0,0,1-.24-.4c0-.21.17-.39.5-.54a.54.54,0,0,1-.24-.46A.86.86,0,0,1,17.88,36.09Zm-.06,1.21a.45.45,0,0,0-.17.34.46.46,0,0,0,.16.36.7.7,0,0,0,.49.15,1.08,1.08,0,0,0,.57-.15.43.43,0,0,0,.26-.38.2.2,0,0,0-.11-.18,1.74,1.74,0,0,0-.6,0A1.65,1.65,0,0,1,17.82,37.3Zm.9-2.31a.29.29,0,0,0-.21.1.88.88,0,0,0-.15.43,2.31,2.31,0,0,0-.07.46c0,.17.07.26.22.26s.28-.14.35-.41a3.37,3.37,0,0,0,.1-.59.27.27,0,0,0-.06-.17A.22.22,0,0,0,18.72,35Z"/><path class="cls-8" d="M24.4,33.47l-.2,1.26H24a1.63,1.63,0,0,0-.16-.83.52.52,0,0,0-.46-.22h-.61l-.25,1.64h.13a.58.58,0,0,0,.45-.15,1.35,1.35,0,0,0,.24-.56h.16l-.26,1.73h-.16a2.27,2.27,0,0,0,0-.24.71.71,0,0,0-.1-.41.45.45,0,0,0-.39-.15h-.12l-.27,1.83h.41l0,.22h-1.5l0-.22h.35l.57-3.69h-.42l0-.21Z"/><path class="cls-8" d="M24.73,37.66a.8.8,0,0,1-.62-.27,1,1,0,0,1-.25-.73,1.58,1.58,0,0,1,.42-1.1,1.25,1.25,0,0,1,.92-.46.82.82,0,0,1,.62.26,1,1,0,0,1,.25.73,1.66,1.66,0,0,1-.4,1.1A1.22,1.22,0,0,1,24.73,37.66Zm.42-2.39a.36.36,0,0,0-.29.17,2.47,2.47,0,0,0-.26.85c-.08.46-.12.74-.12.82a.45.45,0,0,0,.07.27.25.25,0,0,0,.21.11.37.37,0,0,0,.3-.15,2.54,2.54,0,0,0,.26-.87,7.69,7.69,0,0,0,.14-.85C25.46,35.39,25.35,35.27,25.15,35.27Z"/><path class="cls-8" d="M26.47,37.59l.42-2.25h-.33l0-.19H27l.32,0,.17,0h.1l-.12.61v0c.2-.42.42-.63.64-.63a.34.34,0,0,1,.24.11.48.48,0,0,1,0,.57.24.24,0,0,1-.17.1.27.27,0,0,1-.24-.18q-.09-.18-.15-.18c-.07,0-.15.11-.26.33a3.9,3.9,0,0,0-.26.88l-.17.86Z"/><path class="cls-8" d="M33,33.47l-.18,1h-.15a1.13,1.13,0,0,0-.13-.61.54.54,0,0,0-.49-.19h-.63L31.14,35h.09a.81.81,0,0,0,.48-.11.77.77,0,0,0,.26-.48h.16l-.26,1.46h-.16a1.28,1.28,0,0,0,0-.19.69.69,0,0,0,0-.28.35.35,0,0,0-.15-.18.91.91,0,0,0-.27,0H31.1l-.29,1.58h.42a2.09,2.09,0,0,0,.46-.05,1,1,0,0,0,.43-.27,2.21,2.21,0,0,0,.44-.67h.16L32.47,37H29.7l0-.18h.36l.57-3.12h-.42l0-.18Z"/><path class="cls-8" d="M33.1,35.64,33,35.57c.2-.48.46-.72.8-.72a.39.39,0,0,1,.29.1.33.33,0,0,1,.1.24,2.19,2.19,0,0,1-.07.47l-.14.65a.9.9,0,0,1,0,.12,1,1,0,0,0,0,.15.16.16,0,0,0,0,.12.17.17,0,0,0,.14.06.85.85,0,0,0,.61-.41,1.32,1.32,0,0,0,.3-.78c0-.09,0-.14-.09-.14a.56.56,0,0,1-.21,0,.15.15,0,0,1-.09-.1.35.35,0,0,1,0-.17.27.27,0,0,1,.07-.2.23.23,0,0,1,.19-.09.3.3,0,0,1,.25.14.58.58,0,0,1,.1.37,1.78,1.78,0,0,1-.4,1.14,1.15,1.15,0,0,1-.93.51.54.54,0,0,1-.4-.14.44.44,0,0,1-.13-.33,1.43,1.43,0,0,1,.05-.35l.17-.8a1.29,1.29,0,0,0,0-.19q0-.09-.06-.09C33.41,35.11,33.27,35.29,33.1,35.64Z"/><path class="cls-8" d="M37.29,36.25l.11.1a1.27,1.27,0,0,1-1.14.66.75.75,0,0,1-.6-.23.87.87,0,0,1-.2-.56,1.4,1.4,0,0,1,.37-.93,1.24,1.24,0,0,1,1-.44.7.7,0,0,1,.46.14.49.49,0,0,1,.15.38c0,.5-.41.72-1.25.69a2.55,2.55,0,0,0-.07.48c0,.19.09.28.29.28A1.13,1.13,0,0,0,37.29,36.25Zm-1.08-.34a.62.62,0,0,0,.77-.62.37.37,0,0,0-.06-.21.23.23,0,0,0-.2-.09.36.36,0,0,0-.3.22A2.56,2.56,0,0,0,36.21,35.91Z"/><path class="cls-8" d="M37.82,37l.43-1.9h-.34l0-.16h.37l.32,0,.17,0h.1l-.13.52h0c.21-.36.42-.53.64-.53a.33.33,0,0,1,.34.35.29.29,0,0,1-.08.22.24.24,0,0,1-.18.08.3.3,0,0,1-.24-.15c-.06-.09-.11-.14-.14-.14s-.16.09-.26.27a2.48,2.48,0,0,0-.27.75l-.17.72Z"/><path class="cls-8" d="M41,37.08l-.53-1.6q0-.18-.12-.18c-.06,0-.11.07-.16.23s-.06.25-.07.27L40,35.72c.14-.58.35-.87.62-.87a.4.4,0,0,1,.23.08,1,1,0,0,1,.21.41l.31.91c.13-.36.25-.69.33-1s.22-.43.38-.43a.25.25,0,0,1,.17.08.28.28,0,0,1,.08.21.37.37,0,0,1-.06.21.2.2,0,0,1-.18.09l-.13,0-.09,0s-.06,0-.07.09l-.17.51a8.7,8.7,0,0,1-.72,1.6c-.27.48-.57.72-.89.72a.35.35,0,0,1-.26-.1.41.41,0,0,1,0-.51.26.26,0,0,1,.22-.1c.09,0,.15,0,.18.07a.46.46,0,0,1,.09.2q0,.12.09.12c.08,0,.18-.08.3-.23A3.1,3.1,0,0,0,41,37.08Z"/><path class="cls-8" d="M43.33,37a.9.9,0,0,1-.63-.23.81.81,0,0,1-.24-.62,1.22,1.22,0,0,1,.42-.92,1.3,1.3,0,0,1,.92-.39.91.91,0,0,1,.62.21.77.77,0,0,1,.25.62A1.37,1.37,0,0,1,43.33,37Zm.42-2a.41.41,0,0,0-.3.14,2.2,2.2,0,0,0-.25.73,5.32,5.32,0,0,0-.12.69.32.32,0,0,0,.07.22.26.26,0,0,0,.21.09.41.41,0,0,0,.3-.12,2,2,0,0,0,.26-.73,5,5,0,0,0,.13-.72A.27.27,0,0,0,43.75,35Z"/><path class="cls-8" d="M45,37l.42-1.89h-.36l0-.16h.28l.4,0,.22,0h.1l-.1.42h0a1,1,0,0,1,.74-.43.45.45,0,0,1,.31.1.36.36,0,0,1,.13.31.85.85,0,0,1,0,.22l-.18.88a1.12,1.12,0,0,0,0,.24s0,.08,0,.08.25-.17.39-.51l.14,0a1.54,1.54,0,0,1-.36.6.63.63,0,0,1-.43.2.38.38,0,0,1-.29-.12.35.35,0,0,1-.1-.26,1.6,1.6,0,0,1,0-.33l.22-1a1,1,0,0,0,0-.17c0-.06,0-.09-.07-.09l-.12,0-.15.09a1.48,1.48,0,0,0-.19.18.85.85,0,0,0-.13.15L45.65,37Z"/><path class="cls-8" d="M49.58,36.25l.12.1a1.27,1.27,0,0,1-1.14.66.75.75,0,0,1-.6-.23.82.82,0,0,1-.2-.56,1.4,1.4,0,0,1,.37-.93,1.23,1.23,0,0,1,1-.44.7.7,0,0,1,.46.14.49.49,0,0,1,.15.38c0,.5-.42.72-1.25.69a2.55,2.55,0,0,0-.07.48.24.24,0,0,0,.28.28A1.1,1.1,0,0,0,49.58,36.25Zm-1.07-.34a.62.62,0,0,0,.77-.62.37.37,0,0,0-.06-.21A.24.24,0,0,0,49,35a.36.36,0,0,0-.3.22A2.56,2.56,0,0,0,48.51,35.91Z"/></svg>